<svg width="176" height="49" viewBox="0 0 176 49" fill="none" xmlns="http://www.w3.org/2000/svg">
<path d="M29.1869 37.5888C28.5592 36.9899 28.2453 36.2413 28.2453 35.343C28.2453 34.4446 28.5592 33.6746 29.1869 33.033C29.8982 32.4341 30.6305 32.1346 31.3837 32.1346C33.1412 32.1346 34.6268 31.5144 35.8402 30.2738C37.0955 28.9905 37.7233 27.4719 37.7233 25.718C37.7233 23.9641 37.0955 22.4455 35.8402 21.1621C34.6268 19.9216 33.1412 19.3013 31.3837 19.3013C29.7518 19.3013 28.2663 19.9216 26.9273 21.1621C25.7137 22.531 25.107 24.0496 25.107 25.718C25.107 29.2685 23.8935 32.2844 21.4665 34.7655C18.9976 37.2894 16.0266 38.5513 12.5534 38.5513C9.12221 38.5513 6.17214 37.2894 3.70328 34.7655C1.23443 32.2416 0 29.2258 0 25.718C0 22.2102 1.23443 19.1944 3.70328 16.6705C6.17214 14.1466 9.12221 12.8846 12.5534 12.8846C13.4322 12.8846 14.1646 13.1841 14.7504 13.783C15.378 14.4246 15.6919 15.1946 15.6919 16.093C15.6919 16.9485 15.378 17.6971 14.7504 18.3388C14.1646 18.9805 13.4322 19.3013 12.5534 19.3013C10.9215 19.3013 9.43604 19.9216 8.097 21.1621C6.88349 22.531 6.27675 24.0496 6.27675 25.718C6.27675 27.3863 6.88349 28.9049 8.097 30.2738C9.43604 31.5144 10.9215 32.1346 12.5534 32.1346C14.1855 32.1346 15.671 31.5144 17.01 30.2738C18.2235 28.9049 18.8303 27.3863 18.8303 25.718C18.8303 22.2102 20.0646 19.1944 22.5335 16.6705C25.0024 14.1466 27.9525 12.8846 31.3837 12.8846C34.8569 12.8846 37.8279 14.1466 40.2967 16.6705C42.7656 19.1944 44 22.2102 44 25.718C44 29.2258 42.7656 32.2416 40.2967 34.7655C37.8279 37.2894 34.8569 38.5513 31.3837 38.5513C30.5469 38.5513 29.8145 38.2305 29.1869 37.5888Z" fill="#3478F6"/>
<path d="M53.1594 28.1307C53.7069 29.7049 54.648 30.9712 55.9827 31.9294C57.3858 32.9218 58.9087 33.418 60.5514 33.418C61.2016 33.418 61.5438 33.4009 61.578 33.3667L62.3994 33.264L62.7074 33.2127L62.964 33.1614C64.0249 32.9218 65.1371 32.4427 66.3007 31.724C66.8825 31.3476 67.5156 31.2963 68.2 31.57C68.9187 31.8438 69.4149 32.2887 69.6887 32.9047C70.3047 34.1709 69.894 35.3003 68.4567 36.2927C66.7456 37.2852 65.2398 37.9354 63.9394 38.2434L63.58 38.2947L63.1694 38.346L62.656 38.3974L62.0914 38.4487L61.3214 38.5H60.5514C56.9922 38.5 53.9465 37.2338 51.414 34.7014C48.9158 32.2032 47.6667 29.1745 47.6667 25.6154C47.6667 22.022 48.9158 18.9763 51.414 16.478C53.9122 13.9798 56.958 12.7307 60.5514 12.7307C64.0078 12.7307 66.9338 13.8258 69.3294 16.016C72.0671 18.48 73.436 21.6798 73.436 25.6154C73.436 26.2314 73.1965 26.8303 72.7174 27.412C72.1356 27.8912 71.5196 28.1307 70.8694 28.1307H53.1594ZM67.9947 23.0487C67.4814 21.3376 66.4889 20.02 65.0174 19.096C63.7511 18.2405 62.2625 17.8127 60.5514 17.8127C58.9087 17.8127 57.3858 18.3089 55.9827 19.3014C54.648 20.2596 53.7069 21.5087 53.1594 23.0487H67.9947Z" fill="#3478F6"/>
<path d="M76.5717 2.5666C76.5717 1.88216 76.8284 1.28327 77.3417 0.769936C77.8208 0.290825 78.4197 0.0512695 79.1384 0.0512695C79.7544 0.0512695 80.3533 0.290825 80.935 0.769936C81.4142 1.35171 81.6537 1.9506 81.6537 2.5666V35.9846C81.6537 36.7033 81.4142 37.3022 80.935 37.7813C80.4217 38.2946 79.8228 38.5513 79.1384 38.5513C78.4197 38.5513 77.8208 38.2946 77.3417 37.7813C76.8284 37.3022 76.5717 36.7033 76.5717 35.9846V2.5666Z" fill="#3478F6"/>
<path d="M84.8432 2.5666C84.8432 1.88216 85.0999 1.28327 85.6132 0.769936C86.0923 0.290825 86.6912 0.0512695 87.4099 0.0512695C88.0259 0.0512695 88.6248 0.290825 89.2066 0.769936C89.6857 1.35171 89.9252 1.9506 89.9252 2.5666V35.9846C89.9252 36.7033 89.6857 37.3022 89.2066 37.7813C88.6932 38.2946 88.0943 38.5513 87.4099 38.5513C86.6912 38.5513 86.0923 38.2946 85.6132 37.7813C85.0999 37.3022 84.8432 36.7033 84.8432 35.9846V2.5666Z" fill="#3478F6"/>
<path d="M99.0846 28.1307C99.6321 29.7049 100.573 30.9712 101.908 31.9294C103.311 32.9218 104.834 33.418 106.477 33.418C107.127 33.418 107.469 33.4009 107.503 33.3667L108.325 33.264L108.633 33.2127L108.889 33.1614C109.95 32.9218 111.062 32.4427 112.226 31.724C112.808 31.3476 113.441 31.2963 114.125 31.57C114.844 31.8438 115.34 32.2887 115.614 32.9047C116.23 34.1709 115.819 35.3003 114.382 36.2927C112.671 37.2852 111.165 37.9354 109.865 38.2434L109.505 38.2947L109.095 38.346L108.581 38.3974L108.017 38.4487L107.247 38.5H106.477C102.917 38.5 99.8717 37.2338 97.3392 34.7014C94.841 32.2032 93.5919 29.1745 93.5919 25.6154C93.5919 22.022 94.841 18.9763 97.3392 16.478C99.8375 13.9798 102.883 12.7307 106.477 12.7307C109.933 12.7307 112.859 13.8258 115.255 16.016C117.992 18.48 119.361 21.6798 119.361 25.6154C119.361 26.2314 119.122 26.8303 118.643 27.412C118.061 27.8912 117.445 28.1307 116.795 28.1307H99.0846ZM113.92 23.0487C113.407 21.3376 112.414 20.02 110.943 19.096C109.676 18.2405 108.188 17.8127 106.477 17.8127C104.834 17.8127 103.311 18.3089 101.908 19.3014C100.573 20.2596 99.6321 21.5087 99.0846 23.0487H113.92Z" fill="black"/>
<path d="M127.523 35.9846C127.523 36.6006 127.283 37.1995 126.804 37.7813C126.291 38.2946 125.692 38.5513 125.008 38.5513C124.289 38.5513 123.69 38.2946 123.211 37.7813C122.698 37.268 122.441 36.6691 122.441 35.9846V25.6666C122.441 22.1075 123.707 19.0618 126.24 16.5293C128.738 14.0311 131.767 12.782 135.326 12.782C135.976 12.782 136.592 13.0215 137.174 13.5006C137.653 14.0824 137.892 14.6813 137.892 15.2973C137.892 15.9133 137.653 16.5122 137.174 17.094C136.66 17.6073 136.044 17.864 135.326 17.864C133.17 17.864 131.339 18.6169 129.833 20.1226C128.293 21.6626 127.523 23.5106 127.523 25.6666V35.9846Z" fill="black"/>
<path d="M155.892 12.782C156.542 12.782 157.158 13.0216 157.74 13.5007C158.219 14.0824 158.459 14.6813 158.459 15.2973C158.459 15.9133 158.219 16.5122 157.74 17.094C157.227 17.6073 156.611 17.864 155.892 17.864H152.247V35.9847C152.247 36.6007 152.008 37.1996 151.529 37.7813C151.015 38.2947 150.399 38.5513 149.681 38.5513C148.996 38.5513 148.397 38.2947 147.884 37.7813C147.405 37.1996 147.165 36.6007 147.165 35.9847V17.864H143.469C142.785 17.864 142.186 17.6073 141.673 17.094C141.194 16.5122 140.954 15.9133 140.954 15.2973C140.954 14.6813 141.194 14.0824 141.673 13.5007C142.254 13.0216 142.853 12.782 143.469 12.782H147.165V2.51533C147.165 1.89933 147.405 1.30044 147.884 0.718667C148.466 0.239556 149.065 0 149.681 0C150.331 0 150.947 0.239556 151.529 0.718667C152.008 1.30044 152.247 1.89933 152.247 2.51533V12.782H155.892Z" fill="black"/>
<path d="M162.13 29.9273C163.328 29.6535 164.338 30.3209 165.159 31.9293C165.741 32.956 166.596 33.4693 167.726 33.4693C168.444 33.4693 169.06 33.2126 169.574 32.6993C170.087 32.186 170.344 31.5529 170.344 30.8C170.344 30.0813 170.087 29.4653 169.574 28.952C169.06 28.4386 168.444 28.182 167.726 28.182C165.604 28.182 163.79 27.4291 162.284 25.9233C160.778 24.486 160.026 22.6722 160.026 20.482C160.026 18.3602 160.778 16.5464 162.284 15.0406C163.79 13.5349 165.604 12.782 167.726 12.782C169.505 12.782 171.131 13.3124 172.602 14.3733C174.04 15.4684 174.878 16.7175 175.118 18.1206C175.254 18.5313 175.135 19.1815 174.758 20.0713C174.416 20.6189 173.886 20.9782 173.167 21.1493C171.695 21.4573 170.686 20.8242 170.138 19.25C169.796 18.326 168.992 17.864 167.726 17.864C167.007 17.864 166.391 18.1206 165.878 18.634C165.364 19.1473 165.108 19.7633 165.108 20.482C165.108 21.2006 165.364 21.8166 165.878 22.33C166.391 22.8433 167.007 23.1 167.726 23.1C169.847 23.1 171.661 23.8529 173.167 25.3586C174.673 26.8644 175.426 28.6782 175.426 30.8C175.426 32.8533 174.673 34.6842 173.167 36.2926C171.661 37.7984 169.847 38.5513 167.726 38.5513C165.98 38.5513 164.389 37.9866 162.952 36.8573C161.617 35.8306 160.693 34.5302 160.18 32.956C159.94 32.3058 160.043 31.6726 160.488 31.0566C160.932 30.4406 161.48 30.0642 162.13 29.9273Z" fill="black"/>
<path d="M2.44446 45.8846H88" stroke="#3478F6" stroke-width="4" stroke-linecap="round"/>
</svg>
