<svg width="150" height="28" viewBox="0 0 150 28" fill="none" xmlns="http://www.w3.org/2000/svg">
<g clip-path="url(#clip0_168_117)">
<path d="M30.2128 7.68632C24.7747 7.68632 20.5256 11.9366 20.5256 17.6264C20.5256 23.3163 24.6673 27.5302 30.2128 27.5302C35.7583 27.5302 39.9721 23.2436 39.9721 17.5901C39.9721 11.973 35.8304 7.68632 30.2128 7.68632ZM30.2495 23.4297C27.1527 23.4297 24.8834 20.9534 24.8834 17.6279C24.8834 14.2646 27.116 11.7897 30.2128 11.7897C33.3463 11.7897 35.6143 14.3023 35.6143 17.6279C35.6143 20.9534 33.3463 23.4297 30.2495 23.4297ZM41.1598 12.0107H43.861V27.1623H48.1822V8.05567H41.1598V12.0107ZM9.6506 11.7883C11.9199 11.7883 13.7204 13.2293 14.4039 15.3726H18.9778C18.1489 10.7908 14.4759 7.68632 9.68729 7.68632C4.24914 7.68632 0 11.9366 0 17.6279C0 23.3191 4.1418 27.5316 9.68729 27.5316C14.3685 27.5316 18.1136 24.4272 18.9425 19.8076H14.4039C13.7557 21.9509 11.9552 23.4297 9.68595 23.4297C6.55241 23.4297 4.35648 20.9534 4.35648 17.6279C4.35786 14.2646 6.51844 11.7883 9.6506 11.7883ZM123.264 15.7797L120.096 15.2999C118.584 15.0788 117.503 14.5612 117.503 13.3412C117.503 12.0107 118.908 11.3462 120.816 11.3462C122.905 11.3462 124.238 12.2696 124.526 13.7847H128.703C128.234 9.94155 125.353 7.6877 120.925 7.6877C116.351 7.6877 113.326 10.0899 113.326 13.4895C113.326 16.7409 115.307 18.6268 119.303 19.2172L122.472 19.697C124.022 19.9181 124.886 20.5476 124.886 21.7298C124.886 23.245 123.374 23.8732 121.285 23.8732C118.727 23.8732 117.287 22.8015 117.071 21.1758H112.822C113.219 24.9084 116.063 27.5316 121.248 27.5316C125.966 27.5316 129.098 25.3142 129.098 21.5074C129.098 18.1077 126.83 16.3337 123.264 15.7797ZM46.0216 0.184673C44.4372 0.184673 43.2485 1.36686 43.2485 2.99254C43.2485 4.61822 44.4359 5.8004 46.0216 5.8004C47.606 5.8004 48.7951 4.61822 48.7951 2.99254C48.7951 1.36686 47.606 0.184673 46.0216 0.184673ZM109.437 14.5975C109.437 10.4592 106.988 7.6877 101.803 7.6877C96.9054 7.6877 94.1687 10.2382 93.628 14.1554H97.9137C98.1297 12.6403 99.282 11.3839 101.731 11.3839C103.928 11.3839 105.008 12.3815 105.008 13.6014C105.008 15.1908 103.027 15.5965 100.579 15.8553C97.2656 16.2246 93.1605 17.4068 93.1605 21.8418C93.1605 25.2792 95.6457 27.4953 99.6071 27.4953C102.704 27.4953 104.648 26.1648 105.621 24.0578C105.765 25.9423 107.134 27.1623 109.043 27.1623H111.564V23.2086H109.438V14.5975H109.437ZM105.188 19.4019C105.188 21.9523 103.027 23.8368 100.398 23.8368C98.7769 23.8368 97.4085 23.1345 97.4085 21.6571C97.4085 19.7726 99.6054 19.2549 101.622 19.0339C103.567 18.8492 104.647 18.4057 105.188 17.5551V19.4019ZM82.2489 7.68632C79.8355 7.68632 77.8191 8.72159 76.3788 10.4578V0H72.0577V27.1623H76.3065V24.6496C77.7468 26.46 79.8004 27.5316 82.2489 27.5316C87.4341 27.5316 91.36 23.3191 91.36 17.6279C91.36 11.9366 87.3623 7.68632 82.2489 7.68632ZM81.6008 23.4297C78.5039 23.4297 76.2347 20.9534 76.2347 17.6279C76.2347 14.3023 78.5394 11.7897 81.6359 11.7897C84.7696 11.7897 86.9653 14.266 86.9653 17.6279C86.9653 20.9534 84.6974 23.4297 81.6008 23.4297ZM61.7219 7.68632C58.9132 7.68632 57.076 8.8685 55.996 10.5319V8.05567H51.7099V27.1609H56.0311V16.7773C56.0311 13.8575 57.8315 11.7883 60.4964 11.7883C62.9816 11.7883 64.5293 13.5987 64.5293 16.2232V27.1623H68.8504V15.8917C68.8521 11.086 66.44 7.68632 61.7219 7.68632ZM149.697 16.9997C149.697 11.5309 145.808 7.6877 140.586 7.6877C135.041 7.6877 130.971 11.9744 130.971 17.6279C130.971 23.578 135.328 27.5316 140.658 27.5316C145.16 27.5316 148.689 24.7965 149.588 20.917H145.086C144.438 22.6168 142.854 23.578 140.729 23.578C137.955 23.578 135.867 21.804 135.399 18.6995H149.696V16.9997H149.697ZM135.652 15.5209C136.337 12.8599 138.281 11.5672 140.514 11.5672C142.963 11.5672 144.835 13.0082 145.267 15.5209H135.652Z" fill="#0052FF"/>
</g>
<defs>
<clipPath id="clip0_168_117">
<rect width="150" height="27.5316" fill="white"/>
</clipPath>
</defs>
</svg>
