<svg width="114" height="40" viewBox="0 0 114 40" fill="none" xmlns="http://www.w3.org/2000/svg">
<path fill-rule="evenodd" clip-rule="evenodd" d="M81.161 9.82213C83.7225 9.82213 85.7987 7.68623 85.7987 5.05239C85.7987 2.417 83.7225 0.279053 81.161 0.279053C78.6024 0.279053 76.5272 2.417 76.5272 5.05239C76.5272 7.68623 78.6024 9.82213 81.161 9.82213ZM45.642 12.398C45.4327 12.9391 43.9265 17.318 40.2838 21.8565V2.45085L30.5778 4.42521V39.6001H40.2838V28.7273C43.0949 33.0667 44.483 39.6001 44.483 39.6001H56.1088C54.9588 34.6796 49.9285 25.6067 49.9285 25.6067C54.4431 19.7155 56.4262 13.438 56.7416 12.398H45.642ZM71.1585 12.0308C62.465 12.318 58.052 16.3324 58.052 24.3124V39.6001H67.5362V27.1334C67.5362 22.3549 68.1441 20.3067 73.6533 20.1114V12.1708C72.726 11.9683 71.1585 12.0308 71.1585 12.0308ZM14.2999 16.2714C13.111 16.1908 10.3587 16.0078 10.3587 13.4575C10.3587 10.3801 14.3213 10.3801 15.8076 10.3801C18.4209 10.3801 21.8056 11.1749 24.2226 11.9191C24.2226 11.9191 25.5709 12.4083 26.7183 12.9093L26.825 12.9391V4.51085L26.6785 4.46623C23.826 3.43905 20.5091 2.45085 14.3597 2.45085C3.75683 2.45085 0 8.80828 0 14.2544C0 17.3939 1.30742 24.7826 13.4503 25.6349C14.4797 25.7001 17.2117 25.8621 17.2117 28.4975C17.2117 30.6734 14.975 31.9565 11.2132 31.9565C7.09064 31.9565 3.09166 30.8744 0.662677 29.8483V38.5288C4.29893 39.5098 8.39806 40.0001 13.2022 40.0001C23.5694 40.0001 28.2126 33.9852 28.2126 28.0237C28.2126 21.2642 23.0168 16.8724 14.2999 16.2714ZM76.4594 39.6001H85.867V12.4288H76.4594V39.6001ZM103.581 4.18315V39.6001H112.99V2.45085L103.581 4.18315ZM89.852 4.18315L99.252 2.45085V39.6001H89.852V4.18315Z" fill="url(#paint0_linear_168_137)"/>
<defs>
<linearGradient id="paint0_linear_168_137" x1="30.5569" y1="0.279053" x2="39.5344" y2="49.1833" gradientUnits="userSpaceOnUse">
<stop stop-color="#6B195F"/>
<stop offset="1" stop-color="#4C255B"/>
</linearGradient>
</defs>
</svg>
