<svg width="150" height="36" viewBox="0 0 150 36" fill="none" xmlns="http://www.w3.org/2000/svg">
<path d="M132.48 0C135.2 0 137.789 0.623359 140.112 1.73844C140.476 1.9028 140.843 2.09951 141.206 2.2964L139.613 3.7073L137.226 1.24689L133.111 4.85508L130.688 2.26319L123.122 8.98835L127.966 14.2699L126.075 15.9097L130.854 21.1913L128.963 22.8304L135.799 30.3428L139.845 26.6685L143.364 30.6061C142.667 31.131 141.904 31.6569 141.075 32.1154C138.553 33.5258 135.632 34.3444 132.513 34.3444C122.922 34.3444 115.125 26.637 115.125 17.1574C115.091 7.74196 122.89 0 132.48 0ZM129.293 16.1069L133.442 12.4327L137.159 16.5331L133.01 20.207L129.293 16.1069ZM132.248 23.1928L136.362 19.486L140.112 23.5861L135.964 27.2606L132.248 23.1928ZM126.342 9.12001L130.489 5.44574L134.205 9.54613L130.057 13.2202L126.342 9.12001ZM133.939 7.15113L137.026 4.39573L139.814 7.44664L136.727 10.2346L133.939 7.15113ZM139.449 19.7807L142.534 17.0251L145.322 20.1079L142.235 22.8652L139.449 19.7807ZM142.169 25.9813L145.256 23.2252L148.041 26.2759L144.956 29.0635L142.169 25.9813ZM143.43 11.8093L145.487 9.9721L147.345 12.0067L145.288 13.8433L143.43 11.8093ZM140.776 5.74055L142.833 3.87114L144.692 5.93744L142.633 7.77449L140.776 5.74055ZM146.052 17.8786L148.109 16.0415L150 18.0755L147.91 19.912L146.052 17.8786ZM136.794 13.3187L139.88 10.5631L142.667 13.6133L139.582 16.3694L136.794 13.3187Z" fill="#036CB5"/>
<mask id="mask0_168_141" style="mask-type:alpha" maskUnits="userSpaceOnUse" x="0" y="7" width="19" height="16">
<path d="M0 7.13574V22.9918H18.1373V7.13574H0Z" fill="white"/>
</mask>
<g mask="url(#mask0_168_141)">
<path d="M9.1022 11.8309H8.94569L6.00718 22.9918H3.60538L0 7.13574H2.49201L4.98461 18.967H5.14027L8.03278 7.13574H10.014L13.1074 18.967H13.2632L15.5334 7.13574H18.1373L14.531 22.9918H12.1274L9.1022 11.8309Z" fill="#036CB5"/>
</g>
<path d="M21.299 16.2418H26.3941C26.2836 13.8943 25.148 12.9559 23.9468 12.9559C22.5893 12.9559 21.5427 14.0067 21.299 16.2418ZM28.1742 20.4475V22.1474C27.173 22.7287 25.8385 23.1763 24.2353 23.1763C20.4976 23.1763 18.9622 20.8504 18.9622 17.3173C18.9622 13.9166 20.6754 11.4565 24.0135 11.4565C26.7944 11.4565 28.509 13.2692 28.509 16.9137V17.7413H21.2544C21.2544 20.4241 22.3441 21.6097 24.6371 21.6097C25.8385 21.6097 26.9512 21.1841 28.1742 20.4475Z" fill="#036CB5"/>
<path d="M33.6851 21.3831C34.3974 21.6962 35.1768 21.7425 35.7341 21.7425C37.3805 21.7425 38.6253 20.7123 38.6253 17.0903C38.6253 14.25 37.6018 13.3331 36.1114 13.3331C35.2206 13.3331 34.5755 13.5798 33.6851 14.0709V21.3831H33.6851ZM33.7085 12.4164C34.3745 12.0598 35.5092 11.5885 36.7114 11.5885C39.4711 11.5885 40.9624 13.5117 40.9624 17.0903C40.9624 21.2726 38.9592 23.3077 35.7341 23.3077C34.5537 23.3077 32.729 22.9274 31.3931 22.2102V6.60176L33.7085 6.04346V12.4164H33.7085Z" fill="#036CB5"/>
<path d="M50.9783 19.6272H51.0898L55.8511 7.12573H58.6121V22.983H56.2087V11.4871H56.0081L51.4676 22.983H50.0447L45.5033 11.7558H45.3038V22.983H43.3008V7.12573H45.9942L50.9783 19.6272Z" fill="#036CB5"/>
<path d="M68.4313 17.3167C68.4313 14.2978 67.2082 13.0236 65.695 13.0236C64.2268 13.0236 62.9572 14.2978 62.9572 17.3167C62.9572 20.3808 64.1158 21.6097 65.695 21.6097C67.2742 21.6097 68.4313 20.3809 68.4313 17.3167ZM60.6215 17.3167C60.6215 13.4016 62.7584 11.4565 65.695 11.4565C68.6334 11.4565 70.7691 13.4016 70.7691 17.3167C70.7691 21.1401 68.7442 23.1763 65.695 23.1763C62.6464 23.1763 60.6215 21.1401 60.6215 17.3167Z" fill="#036CB5"/>
<path d="M72.5293 13.1127C73.5306 12.5079 75.6456 11.4565 78.2041 11.4565C80.8743 11.4565 81.874 12.5079 81.874 14.8108V22.9077H79.5612V15.3258C79.5612 13.5595 78.6948 13.2464 77.5585 13.2464C76.6694 13.2464 75.533 13.6495 74.8438 14.052V22.9077H72.5293V13.1127H72.5293Z" fill="#036CB5"/>
<path d="M86.7727 16.2418H91.8682C91.7587 13.8943 90.6225 12.9559 89.4208 12.9559C88.063 12.9559 87.0184 14.0067 86.7727 16.2418ZM93.6481 20.4475V22.1474C92.6473 22.7287 91.312 23.1763 89.7095 23.1763C85.973 23.1763 84.4366 20.8504 84.4366 17.3173C84.4366 13.9166 86.1491 11.4565 89.4875 11.4565C92.2702 11.4565 93.9844 13.2692 93.9844 16.9137V17.7413H86.7289C86.7289 20.4241 87.8194 21.6097 90.1116 21.6097C91.312 21.6097 92.4264 21.1841 93.6481 20.4475Z" fill="#036CB5"/>
<path d="M103.228 11.4565H105.609L101.581 22.637C100.467 25.7235 99.111 27.3339 96.5523 27.3339V25.5013C98.0664 25.5013 98.9996 24.2931 99.5349 22.637L95.262 11.4565H97.7103L100.559 19.6863H100.692L103.228 11.4565Z" fill="#036CB5"/>
<path d="M24.0368 33.2985V32.3328C24.862 32.7517 25.6472 32.9621 26.3912 32.9621C27.0109 32.9621 27.4857 32.8485 27.8174 32.6191C28.1492 32.3912 28.3153 32.0831 28.3153 31.6936C28.3153 31.3042 28.1789 31.0121 27.906 30.8178C27.6337 30.6238 27.1248 30.3835 26.3804 30.0989C26.122 30.0018 25.957 29.9386 25.8825 29.9085C25.8092 29.8792 25.6654 29.8185 25.4513 29.7291C25.2378 29.6399 25.0978 29.5719 25.0317 29.5273C24.9651 29.4811 24.8532 29.4135 24.6943 29.3249C24.536 29.2342 24.4292 29.1543 24.3736 29.0845C24.3189 29.0126 24.2429 28.9218 24.147 28.8135C24.0514 28.7055 23.9867 28.5982 23.9534 28.4889C23.9205 28.3805 23.8887 28.2552 23.8596 28.1126C23.8304 27.9699 23.8154 27.817 23.8154 27.6523C23.8154 27.016 24.0497 26.5047 24.5174 26.115C24.9858 25.7267 25.6321 25.532 26.4579 25.532C27.1873 25.532 27.9138 25.6664 28.6355 25.936V26.9567C27.9355 26.612 27.2353 26.4413 26.535 26.4413C26.0413 26.4413 25.6727 26.5443 25.4295 26.7537C25.1863 26.963 25.0645 27.2399 25.0645 27.5846C25.0645 27.9515 25.1863 28.2296 25.4295 28.4209C25.6727 28.6128 26.1079 28.8242 26.7345 29.0555C27.8101 29.4522 28.5511 29.8112 28.9561 30.1334C29.3618 30.4542 29.5644 30.9344 29.5644 31.5696C29.5644 32.2362 29.2862 32.781 28.7297 33.2038C28.1731 33.6265 27.4088 33.838 26.4356 33.838C25.5442 33.838 24.7443 33.6575 24.0368 33.2985ZM35.2857 33.6681H34.2356L34.158 33.0171C33.5236 33.5415 32.8901 33.8038 32.2563 33.8038C31.7259 33.8038 31.3149 33.6601 31.024 33.3712C30.7323 33.0832 30.5869 32.7194 30.5869 32.2767C30.5869 32.0444 30.6292 31.8225 30.7141 31.6091C30.799 31.3955 30.9391 31.1886 31.1342 30.9866C31.3294 30.7842 31.6242 30.6219 32.0184 30.4979C32.4126 30.3738 32.8865 30.3124 33.4394 30.3124H34.125V30.0095C34.125 29.5082 34.0329 29.1669 33.8485 28.9826C33.6638 28.7992 33.3544 28.7076 32.9198 28.7076C32.3891 28.7076 31.7367 28.9273 30.9631 29.3699V28.4722C31.7592 28.1056 32.5401 27.9209 33.3065 27.9209C34.0506 27.9209 34.5671 28.0752 34.8541 28.3826C35.1419 28.6887 35.2857 29.1533 35.2857 29.7729V33.6681ZM34.1361 31.0978H33.5497C32.3408 31.0978 31.7367 31.4611 31.7367 32.1871C31.7367 32.4425 31.8174 32.6257 31.9798 32.7424C32.1423 32.8587 32.345 32.9161 32.5884 32.9161C32.8973 32.9161 33.1961 32.8412 33.4835 32.6911C33.7709 32.5424 33.9887 32.3704 34.1361 32.1757V31.0978H34.1361ZM37.0821 35.9137V28.7419C37.4065 28.4943 37.7892 28.2952 38.2319 28.1458C38.6744 27.9973 39.1085 27.9208 39.5366 27.9208C41.0691 27.9208 41.836 28.8605 41.836 30.7394C41.836 31.7121 41.6371 32.4567 41.2388 32.9721C40.8409 33.4891 40.2703 33.7461 39.5252 33.7461C39.0092 33.7461 38.578 33.6151 38.2319 33.3548V35.9137H37.0821ZM38.2208 29.1223V32.5245C38.3682 32.6661 38.554 32.7715 38.779 32.843C39.0039 32.9141 39.2013 32.9495 39.3706 32.9495C39.7757 32.9495 40.0948 32.7914 40.3271 32.4735C40.5592 32.1548 40.6748 31.5769 40.6748 30.7394C40.6748 30.0585 40.5557 29.5595 40.3161 29.247C40.0766 28.9315 39.7648 28.7752 39.3815 28.7752C38.9472 28.7752 38.5604 28.8905 38.2208 29.1223ZM44.4729 27.9786V33.6681H43.3231V28.2586L44.4729 27.9786ZM43.1461 26.3277C43.1461 26.1257 43.2215 25.9486 43.3724 25.7943C43.524 25.641 43.6991 25.564 43.8974 25.564C44.0969 25.564 44.2719 25.641 44.4233 25.7943C44.5744 25.9486 44.6498 26.1257 44.6498 26.3277C44.6498 26.5297 44.5744 26.708 44.4233 26.862C44.2719 27.0139 44.0969 27.0909 43.8974 27.0909C43.6991 27.0909 43.524 27.0139 43.3724 26.862C43.2215 26.708 43.1461 26.5297 43.1461 26.3277ZM48.7789 33.0171C49.31 33.0171 49.8953 32.8224 50.5367 32.4341V33.287C49.9473 33.6318 49.2949 33.8038 48.58 33.8038C47.6808 33.8038 47.0195 33.5454 46.5957 33.0288C46.1718 32.5121 45.9599 31.7904 45.9599 30.8626C45.9599 29.9791 46.1775 29.2675 46.6118 28.7305C47.0471 28.1918 47.6657 27.9208 48.469 27.9208C49.1772 27.9208 49.7255 28.1535 50.1171 28.6179C50.5076 29.0826 50.7023 29.7625 50.7023 30.6602V31.0762H47.0987C47.0987 31.7424 47.2351 32.2331 47.5074 32.5455C47.7802 32.8611 48.2041 33.0171 48.7789 33.0171ZM48.4358 28.6742C48.09 28.6742 47.7985 28.8128 47.5626 29.0886C47.3271 29.3658 47.1794 29.7782 47.1205 30.3228H49.6521C49.6224 29.7698 49.4938 29.3575 49.2652 29.0845C49.0371 28.8106 48.7606 28.6742 48.4358 28.6742ZM52.167 33.6681V28.7525C53.0736 28.1983 54.0134 27.9208 54.9867 27.9208C55.6426 27.9208 56.1102 28.0566 56.3903 28.3262C56.6705 28.5958 56.8105 29.022 56.8105 29.6051V33.668H55.6609V29.8635C55.6609 29.4522 55.576 29.1749 55.4067 29.0335C55.237 28.8905 54.9903 28.8199 54.6658 28.8199C54.2238 28.8199 53.774 28.9552 53.3173 29.2243V33.668H52.167V33.6681ZM59.7015 28.1918H61.4483L61.1718 28.9552H59.7015V31.9175C59.7015 32.6661 60.0185 33.0401 60.6522 33.0401C60.8954 33.0401 61.1422 32.9881 61.3937 32.8831V33.6008C61.047 33.7358 60.634 33.8038 60.155 33.8038C59.6021 33.8038 59.1968 33.6444 58.9387 33.3254C58.6809 33.0088 58.5518 32.5911 58.5518 32.0735V27.4503L59.7015 26.6075V28.1918H59.7015ZM63.6988 27.9786V33.6681H62.5487V28.2586L63.6988 27.9786ZM62.3721 26.3277C62.3721 26.1257 62.4477 25.9486 62.5979 25.7943C62.749 25.641 62.924 25.564 63.1235 25.564C63.3223 25.564 63.4978 25.641 63.6483 25.7943C63.7998 25.9486 63.8753 26.1257 63.8753 26.3277C63.8753 26.5297 63.7998 26.708 63.6483 26.862C63.4978 27.0139 63.3223 27.0909 63.1235 27.0909C62.924 27.0909 62.749 27.0139 62.5979 26.862C62.4477 26.708 62.3721 26.5297 62.3721 26.3277ZM71.5258 28.3708V29.2676C70.9729 28.8939 70.4126 28.7076 69.8456 28.7076C69.5581 28.7076 69.3223 28.7636 69.1375 28.8762C68.9535 28.9876 68.8613 29.1679 68.8613 29.4135C68.8613 29.6469 68.9624 29.8315 69.1651 29.9698C69.3679 30.1086 69.6868 30.249 70.122 30.3901C70.3652 30.4726 70.5473 30.5366 70.6686 30.5812C70.7907 30.6272 70.9505 30.7022 71.1499 30.8062C71.3487 30.9115 71.4983 31.0152 71.5976 31.1208C71.6971 31.2259 71.7873 31.3635 71.8686 31.5362C71.9497 31.7082 71.9897 31.8985 71.9897 32.1081C71.9897 32.6249 71.7852 33.0362 71.3768 33.3431C70.9676 33.6499 70.42 33.8038 69.735 33.8038C68.9682 33.8038 68.3303 33.6391 67.822 33.3089V32.4341C68.4704 32.8225 69.0639 33.0171 69.6024 33.0171C70.4126 33.0171 70.8182 32.7485 70.8182 32.2091C70.8182 32.1049 70.7942 32.0068 70.7463 31.9176C70.6984 31.8278 70.6432 31.7549 70.5807 31.6985C70.5177 31.6425 70.4162 31.5791 70.2761 31.5069C70.136 31.4373 70.0185 31.3851 69.9225 31.3509C69.8269 31.3175 69.6758 31.2632 69.4696 31.1886C69.1671 31.0762 68.9276 30.9793 68.7505 30.8965C68.5734 30.8136 68.3971 30.7073 68.2201 30.5768C68.0429 30.4458 67.9137 30.2895 67.8332 30.1105C67.7523 29.9315 67.7117 29.7176 67.7117 29.4709C67.7117 29.1565 67.7852 28.8879 67.9326 28.664C68.0799 28.438 68.2719 28.2772 68.5073 28.1803C68.7432 28.0827 68.9588 28.0149 69.1541 27.9786C69.3497 27.9399 69.543 27.9209 69.735 27.9209C70.3617 27.9208 70.9584 28.0709 71.5258 28.3708ZM77.6337 33.6681H76.5837L76.5059 33.0171C75.8716 33.5415 75.2384 33.8038 74.6048 33.8038C74.0742 33.8038 73.6632 33.6601 73.372 33.3712C73.0805 33.0832 72.9353 32.7194 72.9353 32.2767C72.9353 32.0444 72.9776 31.8225 73.0626 31.6091C73.1472 31.3955 73.2873 31.1886 73.4826 30.9866C73.6784 30.7842 73.9725 30.6219 74.3668 30.4979C74.7613 30.3738 75.2351 30.3124 75.7871 30.3124H76.4733V30.0095C76.4733 29.5082 76.3807 29.1669 76.1974 28.9826C76.0119 28.7992 75.7027 28.7076 75.2685 28.7076C74.7375 28.7076 74.085 28.9273 73.3113 29.3699V28.4722C74.1075 28.1056 74.8884 27.9209 75.6548 27.9209C76.3996 27.9209 76.9148 28.0752 77.2025 28.3826C77.4898 28.6887 77.6337 29.1533 77.6337 29.7729V33.6681H77.6337ZM76.4849 31.0978H75.8983C74.6894 31.0978 74.085 31.4611 74.085 32.1871C74.085 32.4425 74.1661 32.6257 74.3281 32.7424C74.4906 32.8587 74.6927 32.9161 74.9364 32.9161C75.2457 32.9161 75.5434 32.8412 75.8319 32.6911C76.1193 32.5424 76.3371 32.3704 76.4849 32.1757V31.0978H76.4849ZM80.5254 28.1918H82.272L81.9949 28.9552H80.5254V31.9175C80.5254 32.6661 80.842 33.0401 81.4751 33.0401C81.7186 33.0401 81.9647 32.9881 82.2164 32.8831V33.6008C81.8699 33.7358 81.4577 33.8038 80.9772 33.8038C80.4254 33.8038 80.0202 33.6444 79.7622 33.3254C79.504 33.0088 79.3745 32.5911 79.3745 32.0735V27.4503L80.5253 26.6075V28.1918H80.5254Z" fill="#B6B6B6"/>
</svg>
