<svg width="16" height="16" viewBox="0 0 16 16" fill="none" xmlns="http://www.w3.org/2000/svg">
<path d="M7.67063 11.7984C7.70733 11.8606 7.75644 11.9114 7.81372 11.9465C7.871 11.9816 7.93475 12 7.99946 12C8.06417 12 8.12791 11.9816 8.1852 11.9465C8.24248 11.9114 8.29158 11.8606 8.32828 11.7984L11.9286 5.73215C11.9702 5.66218 11.9947 5.58023 11.9992 5.4952C12.0038 5.41016 11.9883 5.3253 11.9544 5.24983C11.9205 5.17436 11.8695 5.11117 11.807 5.06713C11.7445 5.02308 11.6728 4.99987 11.5997 5H4.39918C4.32631 5.00035 4.2549 5.02387 4.19263 5.06802C4.13036 5.11217 4.07959 5.17529 4.04578 5.25058C4.01196 5.32587 3.99638 5.4105 4.00071 5.49535C4.00504 5.5802 4.02912 5.66207 4.07035 5.73215L7.67063 11.7984Z" fill="#11243E"/>
</svg>
