<svg width="544" height="863" viewBox="0 0 544 863" fill="none" xmlns="http://www.w3.org/2000/svg">
<mask id="mask0_301_18" style="mask-type:alpha" maskUnits="userSpaceOnUse" x="0" y="0" width="863" height="863">
<path d="M406.771 0.388185C388.961 1.55166 364.27 4.15236 348.687 6.61618C324.131 10.4488 297.822 17.7718 284.802 24.342C281.968 25.7792 277.246 27.764 274.21 28.7221C258.897 33.7182 221.861 52.9497 198.25 68.1433C122.559 116.735 62.9909 189.144 29.9352 272.778C13.8121 313.636 4.43503 354.837 0.859607 400.417C-0.422146 416.295 -0.219764 453.389 1.12945 468.172C7.53822 535.791 25.4828 591.706 60.0227 651.727C63.3282 657.476 67.3084 664.525 68.9275 667.468C70.4791 670.411 73.9196 675.407 76.4831 678.624C79.114 681.841 83.8363 687.795 87.0744 691.97C112.979 725.231 138.817 751.101 169.242 774.439C230.766 821.526 303.488 851.092 380.056 860.262C399.283 862.589 407.445 863 430.652 863C462.966 863 480.438 861.426 513.966 855.472C544.998 849.996 566.383 844.111 584.8 836.035C637.419 812.834 664.538 797.298 697.459 771.428C717.697 755.55 744.951 729.748 760.737 711.475C789.745 677.94 819.968 625.72 836.63 580.413C859.23 518.749 867.46 452.568 860.714 387.072C855.25 334.442 840.206 283.112 816.595 236.847C777.467 160.331 718.439 98.3936 643.828 55.7558C631.01 48.4327 617.72 41.8625 599.978 34.0604C593.097 31.0491 584.665 27.2849 581.224 25.7792C554.645 13.8708 519.363 6.27398 468.43 1.41478C455.208 0.114427 419.993 -0.43309 406.771 0.388185ZM473.422 4.08392C479.291 4.69988 484.283 5.31583 484.485 5.52115C484.688 5.72647 484.081 5.86335 483.069 5.86335C480.303 5.86335 470.589 9.21688 464.719 12.1598C457.906 15.6502 450.081 20.7832 443.2 26.3952C437.87 30.7069 437.803 30.7069 435.172 30.0225C433.485 29.5434 431.731 29.475 430.382 29.8856C428.561 30.4331 428.156 30.2963 426.604 28.3115C418.374 17.5665 411.291 10.9963 404.14 7.5059C392.604 1.89385 383.159 4.83675 375.199 16.4715C372.838 19.8935 371.354 21.536 370.612 21.3307C366.767 20.1672 350.913 19.2091 336.207 19.2091C320.826 19.2091 311.584 19.8935 305.175 21.3991C304.23 21.6044 303.691 21.6044 303.893 21.3307C304.568 20.5778 325.008 15.0342 336.881 12.3651C357.322 7.77965 381.608 4.2208 400.632 3.12577C415.81 2.30449 460.402 2.85201 473.422 4.08392ZM402.588 8.87469C408.052 11.4069 414.124 16.4715 420.263 23.6576C423.366 27.3534 425.93 30.5016 425.93 30.7069C425.93 30.8438 424.985 31.186 423.838 31.4597C422.422 31.7335 417.632 30.8438 409.537 28.7906C399.215 26.2583 390.378 24.4105 376.144 21.9466L373.917 21.536L376.009 18.6615C380.461 12.4335 384.846 8.66937 389.501 7.1637C392.199 6.27398 398.878 7.09526 402.588 8.87469ZM501.351 8.80625C504.319 9.69596 508.501 11.4754 510.593 12.7757C514.303 15.0342 523.073 22.631 523.073 23.5207C523.073 23.7945 518.756 23.9314 513.494 23.7945C497.64 23.3839 474.501 25.1633 452.239 28.5168C446.977 29.2697 442.592 29.8172 442.457 29.6803C442.323 29.5434 444.481 27.764 447.247 25.7108C468.565 9.62752 485.767 4.2208 501.351 8.80625ZM518.688 10.9963C527.728 12.8442 546.684 17.4981 552.081 19.2091C553.768 19.6881 559.232 21.4676 564.224 23.0417C579.942 27.9693 597.28 34.9501 597.28 36.3874C597.28 36.5243 595.998 36.1136 594.446 35.5661C581.561 30.9807 555.252 26.2583 533.192 24.6158L526.783 24.1367L521.319 18.9353C518.351 16.0608 513.898 12.5704 511.537 11.1332C509.176 9.69596 507.827 8.66937 508.569 8.87469C509.311 9.08 513.898 10.0382 518.688 10.9963ZM363.191 22.2888C371.691 23.3154 371.556 23.247 370.409 25.1633C369.87 26.053 368.386 29.2697 367.171 32.4179C365.552 36.5243 364.54 38.1668 363.528 38.3721C362.786 38.509 359.481 38.9881 356.108 39.3987C321.028 43.9157 278.393 53.9079 246.889 64.9951C240.952 67.0483 235.96 68.6224 235.825 68.4855C235.623 68.2802 239.738 63.9001 244.865 58.7671C254.107 49.3909 265.103 40.2884 276.976 32.0757C282.373 28.3115 283.79 27.6956 290.199 26.1214C298.429 24.2051 307.671 22.5626 315.969 21.6729C323.389 20.8516 354.893 21.2622 363.191 22.2888ZM385.858 25.7108C397.664 27.9009 414.124 31.665 415.743 32.5548C417.092 33.3076 413.719 33.7182 398.271 34.9501C391.052 35.4977 381.203 36.3874 376.346 36.9349C371.556 37.4824 367.509 37.8246 367.441 37.7562C366.767 37.1402 372.973 23.6576 373.917 23.6576C374.187 23.6576 379.584 24.6158 385.858 25.7108ZM523.68 26.1214C526.041 26.6005 528.605 29.9541 533.529 38.9881L536.093 43.642L534.137 43.2313C519.633 40.2884 478.819 35.5661 455.275 34.1973C450.823 33.9236 446.1 33.376 444.819 32.897L442.457 32.0757L446.842 31.3229C457.164 29.475 477.739 27.2165 493.39 26.1214C499.664 25.7108 521.656 25.7108 523.68 26.1214ZM538.589 27.0796C556.938 28.7906 574.613 32.0757 589.994 36.6611C604.566 40.9728 606.724 41.9994 613.066 47.4746C619.879 53.4288 633.034 68.0749 633.034 69.7174C633.034 69.9227 631.415 69.4437 629.526 68.6908C609.153 60.7518 578.391 51.9916 551.339 46.448L538.454 43.8473L536.093 39.3987C533.799 35.2239 532.315 32.6916 529.549 28.2431C528.065 25.9846 527.458 26.1214 538.589 27.0796ZM273.131 32.4863C272.726 32.7601 269.286 35.4292 265.373 38.3721C252.69 47.9537 241.087 58.7671 234.139 67.5274C232.182 69.9912 230.698 71.0178 226.786 72.5919C221.659 74.5766 211.27 79.0252 204.389 82.1734L200.408 83.9528L203.377 80.3256C208.706 73.7554 217.678 64.6529 224.155 59.1777C236.635 48.5696 245.54 43.4366 267.397 34.4026C273.873 31.665 274.008 31.665 273.131 32.4863ZM413.787 40.1516C396.719 49.254 379.044 59.5884 365.552 68.3486C361.842 70.8125 358.671 72.6603 358.536 72.5234C358.266 72.3181 361.505 56.6455 362.719 52.4022L363.596 49.3224L373.648 46.448C398.878 39.1934 414.259 35.5661 420.195 35.3608C422.691 35.2923 422.219 35.703 413.787 40.1516ZM429.707 36.3189C430.517 36.5927 429.64 37.9615 426.199 41.931C420.06 49.1171 410.953 61.5731 403.937 72.5919L398.203 81.6259L390.985 82.105C387.005 82.3103 377.763 83.0631 370.409 83.6791C363.124 84.295 356.985 84.6372 356.782 84.4319C356.647 84.295 356.782 82.2419 357.187 79.9149L357.929 75.7401L366.767 69.9912C387.14 56.7139 425.457 35.2239 427.818 35.7714C428.223 35.9083 429.1 36.1136 429.707 36.3189ZM460.672 40.0147C476.997 45.2161 495.212 51.6494 510.255 57.5352C522.263 62.2575 546.617 72.6603 547.494 73.4816C547.764 73.7554 548.708 76.8351 549.653 80.394L551.339 86.7589L548.506 86.3482C542.097 85.3901 520.375 83.2685 509.041 82.4472L496.831 81.6259L489.882 76.0139C477.874 66.4323 464.517 56.7139 449.406 46.448C441.176 40.9044 434.902 36.1821 435.172 35.8399C435.442 35.3608 437.803 35.2239 441.715 35.4977C446.64 35.8399 450.35 36.6611 460.672 40.0147ZM467.418 37.0033C483.069 38.0984 508.771 41.1097 526.244 43.9842L537.105 45.6952L539.264 50.0753C541.22 54.1817 546.684 68.8962 546.684 70.1965C546.684 70.4703 541.76 68.6224 535.756 65.9533C514.843 56.8508 490.489 47.6115 468.093 40.2884C461.819 38.2352 456.489 36.3874 456.287 36.1821C456.085 35.9767 457.164 35.9767 458.648 36.2505C460.132 36.4558 464.112 36.798 467.418 37.0033ZM392.199 39.0565C387.544 40.2884 379.517 42.5469 374.322 44.0526C369.128 45.6267 364.81 46.7217 364.675 46.5849C364.338 46.2427 365.89 41.315 366.564 40.5622C366.834 40.22 372.298 39.3987 378.775 38.7143C401.171 36.2505 402.521 36.2505 392.199 39.0565ZM439.692 59.2462C442.795 69.2384 445.628 78.067 445.83 78.8883L446.235 80.4624H433.822C427.009 80.4624 416.755 80.6678 411.156 80.9415L400.834 81.3521L404.882 74.9188C411.223 64.9267 419.926 52.7444 425.997 45.353C431.326 38.8512 431.596 38.6459 432.743 39.8778C433.35 40.5622 436.521 49.254 439.692 59.2462ZM456.624 53.6341C462.763 57.9458 474.366 66.6376 490.085 78.683C491.501 79.778 492.581 80.8046 492.513 80.9415C492.378 81.0099 482.394 80.9415 470.319 80.6678L448.327 80.2571L445.83 71.9759C443.2 63.4894 436.521 42.7523 435.644 40.5622C435.172 39.2618 442.862 44.0526 456.624 53.6341ZM362.989 44.5317C362.516 45.9689 361.64 47.4061 361.1 47.7483C360.56 48.0221 352.87 50.7597 343.965 53.7026C319.072 62.0522 297.08 70.744 274.953 81.0784C262.742 86.7589 237.377 99.8993 228.27 105.306L221.861 109.07L221.321 106.196C219.972 98.8042 223.278 87.4433 229.889 77.1089C233.397 71.5653 232.655 71.9759 249.79 66.0901C280.147 55.6873 313.742 47.7483 350.711 42.2732C359.346 40.9728 363.596 40.5622 363.731 41.1097C363.798 41.4519 363.461 43.026 362.989 44.5317ZM610.772 41.1097C611.716 41.6572 612.189 42.0679 611.784 42.0679C611.447 42.0679 610.367 41.6572 609.423 41.1097C608.478 40.5622 608.073 40.1516 608.411 40.1516C608.816 40.1516 609.827 40.5622 610.772 41.1097ZM627.772 51.7863C637.014 56.5086 649.022 64.1054 657.185 70.4703C666.225 77.4511 683.292 93.1922 680.594 92.0287C680.256 91.8234 673.983 88.7436 666.764 85.0479C659.546 81.4206 649.967 76.9036 645.514 75.0557L637.419 71.7022L633.371 66.3639C631.145 63.3526 625.816 57.3299 621.431 52.9497L613.538 45.0108L617.181 46.5849C619.205 47.4746 623.927 49.87 627.772 51.7863ZM547.089 47.6115C571.982 52.4707 596.74 59.1777 619.205 67.0483C636.677 73.1394 635.463 72.455 639.24 79.5043C640.994 82.9263 643.086 88.1277 643.828 91.0706C645.177 96.4088 645.649 105.785 644.637 105.785C644.3 105.785 640.724 104.827 636.677 103.663C627.165 100.926 615.089 97.983 602.002 95.2454L591.546 92.9869L570.565 82.4472L549.585 71.9075L547.022 64.3791C545.672 60.2043 543.514 54.5923 542.232 51.7863C540.006 46.8586 539.736 46.2427 540.141 46.2427C540.208 46.2427 543.311 46.8586 547.089 47.6115ZM360.358 53.2235C360.02 54.866 358.874 60.3412 357.862 65.4057L355.973 74.6451L347.608 80.5993C343.02 83.8844 338.366 86.7589 337.219 86.8957C336.139 87.1011 328.381 88.1961 320.084 89.3596C293.167 93.1237 263.147 98.9411 239.063 105.032C233.329 106.538 228.54 107.633 228.472 107.564C228.067 107.222 247.091 96.9564 260.314 90.4546C288.445 76.4245 311.246 66.9798 343.29 56.098C352.6 52.9497 360.358 50.349 360.56 50.349C360.83 50.349 360.695 51.6494 360.358 53.2235ZM228.944 52.676C228.944 52.7444 227.055 54.387 224.762 56.2348C218.218 61.4362 206.547 73.1394 201.15 79.9149C196.833 85.3216 195.619 86.4167 190.492 89.1543C156.559 107.564 134.567 123.648 111.428 146.849C98.88 159.442 98.4078 159.852 105.491 151.64C136.118 116.188 173.424 84.911 212.416 61.9838C218.353 58.4933 224.424 54.9345 225.909 54.0448C228.809 52.3338 228.944 52.2653 228.944 52.676ZM664.268 70.744C690.241 87.5117 712.435 105.443 734.9 127.686C743.737 136.446 744.007 137.13 735.777 129.876C725.455 120.91 709.13 109.139 694.761 100.378C688.149 96.3404 685.653 94.2872 680.864 89.0858C674.59 82.3787 664.673 73.3447 657.252 67.7327C654.824 65.8848 651.923 63.6947 650.844 62.805L648.887 61.2309L651.586 62.7366C653.07 63.5579 658.804 67.1852 664.268 70.744ZM226.92 77.9986C221.389 87.1695 219.162 94.8347 219.297 104.143L219.365 110.439L213.833 111.945C209.246 113.177 180.035 122.827 177.134 124.058C175.38 124.743 184.42 107.77 192.381 95.5876L197.373 87.8539L203.916 84.7057C210.662 81.489 228.27 73.7554 229.079 73.6869C229.349 73.6185 228.337 75.6032 226.92 77.9986ZM663.391 85.3901C676.546 91.6865 685.114 96.751 687.88 99.8308C693.344 105.922 703.261 119.952 708.185 128.507L710.074 131.792L707.443 130.697C706.026 130.081 703.193 128.712 701.169 127.686C691.792 122.895 676.141 116.667 658.467 110.644L647.201 106.812L646.931 99.6255C646.661 91.8918 645.177 86.3482 641.399 79.0936C640.32 77.0405 639.375 75.1241 639.24 74.8504C638.971 74.3029 652.8 80.3256 663.391 85.3901ZM569.553 83.9528C577.446 87.8539 583.653 91.139 583.248 91.2759C582.911 91.3443 578.863 90.8652 574.276 90.1124C569.688 89.3596 563.145 88.333 559.704 87.9223L553.565 87.1011L552.149 81.4206C551.339 78.2724 550.732 75.5348 550.732 75.3295C550.732 74.782 553.498 76.0823 569.553 83.9528ZM355.028 81.2153C354.691 83.1316 354.354 84.8426 354.286 84.911C354.151 85.0479 351.655 85.3216 348.687 85.5954L343.29 86.0745L349.024 81.9681C352.195 79.6412 354.961 77.7933 355.163 77.7249C355.366 77.7249 355.298 79.299 355.028 81.2153ZM448.327 87.3064C457.434 119.473 471.263 175.73 470.319 176.688C469.712 177.236 445.426 178.263 432.001 178.331C416.687 178.331 393.683 177.304 378.37 175.867C372.096 175.32 364.878 174.635 362.382 174.43C359.818 174.225 357.794 173.814 357.794 173.609C357.794 172.719 365.215 153.624 369.6 143.085C375.132 129.944 389.096 101.542 395.1 91.0706L399.485 83.5422L406.433 83.1316C410.279 82.9263 421.005 82.7894 430.247 82.7894L447.045 82.8578L448.327 87.3064ZM496.696 84.3635C502.835 88.4014 522.736 106.606 541.557 125.564C562.268 146.301 561.458 145.206 562.2 153.145C562.605 156.636 563.01 160.331 563.212 161.29C563.482 163.069 563.347 163.137 557.613 164.575C536.363 169.776 511.807 173.677 486.307 175.936C480.033 176.483 474.366 176.962 473.827 176.962C473.017 176.962 472.343 175.183 471.196 169.913C465.664 144.727 452.711 93.8081 449.136 83.2685C448.866 82.4472 452.172 82.3787 471.938 82.7209C491.771 83.1316 495.212 83.3369 496.696 84.3635ZM392.469 91.5496C382.08 109.823 367.239 142.058 358.739 164.848L355.501 173.677L353.544 173.266C352.465 173.061 350.981 172.856 350.306 172.856C349.159 172.856 349.092 172.377 349.429 166.149C351.116 134.598 352.87 112.903 355.298 93.4659L356.108 86.9642L365.552 86.0745C378.64 84.911 389.231 84.0897 393.346 83.9528L396.854 83.8844L392.469 91.5496ZM522.061 85.6638C529.144 86.2114 538.387 87.1695 542.637 87.717C546.887 88.1961 550.732 88.6752 551.137 88.6752C551.541 88.6752 552.081 89.4965 552.283 90.523C555.859 107.154 559.502 128.439 560.514 138.294L560.918 142.4L552.621 133.777C540.006 120.705 522.466 103.8 511.942 94.6294C498.18 82.7209 498.855 83.6791 504.521 84.1582C507.152 84.3635 515.045 85.0479 522.061 85.6638ZM353.747 88.8805C353.747 89.7702 353.342 93.8766 352.802 97.983C350.711 113.656 348.889 135.898 347.743 159.373C347.405 166.08 346.933 171.761 346.731 171.966C346.191 172.514 325.75 169.023 313.945 166.354C300.115 163.206 286.556 159.236 275.964 155.267L267.397 152.05L272.591 146.643C287.298 131.518 310.909 110.644 329.866 96.0666L339.31 88.8121L344.707 88.1277C353.477 87.0326 353.747 87.1011 353.747 88.8805ZM334.79 89.6333C334.655 89.7702 330.27 93.1922 325.076 97.2301C306.996 111.329 291.413 125.153 275.425 141.237L265.508 151.16L258.357 147.67C247.968 142.606 240.21 137.267 233.667 130.492C228.067 124.811 223.75 117.967 222.603 113.245L222.198 111.397L238.928 107.291C267.464 100.173 292.088 95.3823 323.727 90.7968C333.171 89.428 335.262 89.2227 334.79 89.6333ZM565.371 90.7284C588.308 94.1503 589.859 94.561 598.494 99.4202C616.304 109.549 637.082 122.758 637.082 123.99C637.082 125.359 625.074 136.514 619.947 139.936C609.962 146.507 598.427 151.913 583.383 157.115L575.895 159.715L569.688 152.598L563.549 145.548L562.47 137.473C560.581 122.416 556.331 98.3251 554.375 90.8652C553.835 89.0174 553.565 89.0174 565.371 90.7284ZM188.468 97.983C185.837 102.089 181.452 109.96 178.686 115.503L173.627 125.496L168.769 127.412C142.392 137.541 113.317 153.556 97.5308 166.559C95.507 168.202 93.8205 169.434 93.6856 169.297C93.2133 168.818 108.055 152.529 116.285 144.59C135.983 125.427 158.853 108.796 185.095 94.3557C189.345 92.0287 192.92 90.2493 193.055 90.3177C193.123 90.4546 191.099 93.8766 188.468 97.983ZM605.038 97.9145C618.732 100.721 644.502 107.633 644.502 108.523C644.502 109.755 641.669 117.146 640.387 119.268C639.443 120.842 638.633 121.458 637.891 121.184C637.351 120.979 632.899 118.241 628.042 115.093C623.185 111.945 614.347 106.538 608.411 103.047C596.808 96.2035 596.268 95.7929 598.292 96.4088C599.034 96.6826 602.069 97.367 605.038 97.9145ZM704.542 109.07C735.979 129.739 764.785 157.731 784.416 186.886C786.844 190.445 787.114 191.061 785.495 189.281C765.257 166.97 746.368 151.913 720.463 137.473L713.312 133.435L709.737 127.275C705.149 119.473 701.372 113.724 695.907 106.538L691.59 100.789L694.221 102.363C695.638 103.253 700.292 106.264 704.542 109.07ZM680.594 120.842C691.455 125.222 701.844 129.944 707.578 133.024L712.3 135.556L717.157 145.412C725.185 161.769 731.729 179.7 736.923 199.821L739.554 210.018L729.975 199.821C704.205 172.377 680.054 151.297 650.236 130.081C645.042 126.385 640.724 123.374 640.657 123.306C640.522 123.237 641.534 121.184 642.748 118.72C644.03 116.325 645.379 113.04 645.784 111.466L646.594 108.591L659.546 113.04C666.629 115.503 676.141 118.994 680.594 120.842ZM221.793 116.941C225.976 128.302 240.345 141.442 258.087 149.86L263.889 152.666L259.571 157.457C222.94 197.699 197.373 234.588 170.523 285.713L168.567 289.408L159.46 292.625C154.468 294.404 149.813 296.115 149.206 296.389C148.059 296.868 147.991 295.842 147.991 280.101C147.991 233.493 153.321 192.909 163.98 157.662L166.408 149.655L172.884 144.59C188.468 132.545 219.23 112.013 220.174 113.108C220.444 113.382 221.186 115.093 221.793 116.941ZM201.623 121.8C189.075 130.081 183.948 133.708 174.841 140.484C171.198 143.221 168.23 145.275 168.23 145.069C168.23 144.796 169.781 140.621 171.67 135.83L175.111 127.07L178.956 125.564C184.555 123.306 210.258 114.751 211.405 114.751C211.944 114.682 207.492 117.899 201.623 121.8ZM647.605 130.629C670.475 146.78 689.701 162.658 709.265 181.411C718.304 190.103 737.396 210.155 739.42 213.03C741.241 215.767 744.816 237.531 746.705 257.721C747.312 263.949 747.987 278.39 748.189 289.819C748.527 307.476 748.459 310.556 747.65 310.282C722.554 299.811 699.483 292.146 668.518 284.07C661.84 282.359 656.308 280.853 656.24 280.785C656.173 280.716 655.296 278.937 654.284 276.884C651.383 271.067 642.816 255.599 637.217 246.086C621.498 219.395 603.216 193.182 583.923 169.571C580.415 165.259 577.851 161.563 578.121 161.221C578.458 160.947 581.764 159.715 585.474 158.483C600.653 153.419 614.82 146.37 624.871 138.773C629.863 135.009 638.431 126.659 638.431 125.564C638.431 124.332 639.78 125.085 647.605 130.629ZM172.075 129.191C171.873 129.67 170.456 133.298 168.972 137.267C167.42 141.237 165.734 145.412 165.194 146.575C164.654 147.875 161.416 151.16 157.301 154.446C135.309 172.514 112.979 195.099 93.5506 219.052C87.1419 226.923 74.6616 244.17 70.0743 251.424C68.5902 253.751 67.1735 255.668 66.9711 255.668C66.4989 255.668 66.2965 254.983 64.7449 247.113C62.6536 236.641 63.5981 219.532 66.8362 209.95C69.1973 202.832 81.8125 184.011 88.7609 177.236C105.761 160.674 129.642 146.096 163.507 131.724C171.94 128.165 172.615 127.959 172.075 129.191ZM739.285 151.297C763.368 167.244 783.674 187.365 797.098 208.444C800.067 213.03 801.011 215.151 801.551 218.71C803.642 231.303 803.102 242.253 799.932 253.614C798.313 259.295 792.106 272.914 789.678 276.131L788.396 277.705L783.809 270.314C773.622 253.751 761.209 236.368 748.662 221.106L742.455 213.509L739.757 202.627C734.495 181.684 727.614 162.248 719.654 145.891C717.292 141.031 715.336 136.993 715.336 136.857C715.336 136.378 730.987 145.754 739.285 151.297ZM572.319 158.552L573.669 160.331L569.553 161.563C567.327 162.179 565.371 162.59 565.236 162.453C565.168 162.316 564.831 159.305 564.629 155.746L564.157 149.244L567.597 153.008C569.486 155.062 571.577 157.594 572.319 158.552ZM162.158 156.773C156.626 172.993 150.015 208.239 148.059 232.056C147.654 236.573 147.182 242.596 146.912 245.402C146.642 248.208 146.237 261.143 146.035 274.078L145.63 297.689L140.571 299.674C137.805 300.769 130.519 303.849 124.448 306.45L113.384 311.172L110.281 308.982C89.0982 293.72 76.1458 278.8 68.86 261.006L67.8481 258.542L73.6497 249.713C88.626 227.265 102.388 210.292 121.952 190.103C135.781 175.799 162.361 151.64 163.238 152.529C163.372 152.666 162.9 154.582 162.158 156.773ZM269.893 155.13C275.695 157.662 289.996 162.453 299.306 164.917C309.02 167.518 331.282 172.171 341.199 173.609L347.203 174.498L346.731 187.502L346.258 200.574L342.616 212.551C338.163 227.334 334.183 241.432 331.822 250.877C330.81 254.846 329.866 258.268 329.596 258.542C329.326 258.747 325.615 259.295 321.365 259.774C270.298 264.839 223.143 273.599 181.452 285.781C176.257 287.287 171.94 288.382 171.805 288.245C171.265 287.697 187.254 258.679 195.416 245.402C209.651 222.406 228.54 196.262 244.325 177.647C252.016 168.613 265.575 153.693 266.115 153.693C266.385 153.693 268.072 154.309 269.893 155.13ZM583.113 171.555C599.034 191.266 615.224 214.193 628.649 235.82C636.677 248.687 654.419 280.306 653.677 280.306C653.542 280.306 649.494 279.416 644.772 278.321C625.748 273.941 600.316 269.219 575.895 265.523L568.272 264.428V238.968C568.272 213.92 567.732 197.289 566.18 176.072C565.776 170.118 565.573 165.122 565.776 164.848C566.113 164.506 574.073 162.042 575.018 161.974C575.22 161.974 578.863 166.286 583.113 171.555ZM563.549 165.875C563.549 166.217 564.022 173.198 564.561 181.479C565.776 198.794 566.653 234.041 566.383 251.835L566.18 264.086L562.335 263.675C560.244 263.401 553.16 262.648 546.684 261.896C533.26 260.322 507.692 258.063 495.886 257.31C488.533 256.9 487.926 256.763 487.656 255.394C487.454 254.641 486.105 246.839 484.62 238.216C481.855 222.474 475.918 191.198 474.164 183.464C473.624 181.274 473.287 179.358 473.354 179.221C473.489 179.152 479.021 178.605 485.7 177.989C508.771 176.004 530.494 172.719 550.395 168.27C556.331 166.97 561.323 165.738 561.458 165.601C561.998 165.122 563.549 165.327 563.549 165.875ZM354.151 175.799C354.286 175.936 353.139 179.974 351.588 184.696C350.036 189.487 348.687 193.319 348.62 193.182C348.485 193.114 348.62 188.939 348.822 183.875L349.227 174.772L351.588 175.183C352.87 175.388 354.016 175.662 354.151 175.799ZM367.576 176.962C385.318 178.673 390.31 179.015 410.751 179.837C426.807 180.384 437.263 180.453 451.565 179.905C462.156 179.494 470.926 179.289 471.061 179.426C471.938 180.247 486.172 255.668 485.565 256.284C485.43 256.42 477.807 256.215 468.632 255.805C459.39 255.325 438.545 254.983 422.219 254.983C395.437 254.983 384.171 255.325 356.985 256.763L348.417 257.242L348.35 229.045L348.282 200.848L352.128 189.418C356.782 175.456 356.782 175.525 358.671 175.936C359.481 176.072 363.528 176.552 367.576 176.962ZM64.3401 209.266C51.0504 233.288 39.9868 264.154 34.3876 292.967C32.7685 301.111 30.7447 315.826 29.9352 325.134C29.328 331.567 28.5185 335.331 26.2248 342.586C20.7605 359.627 17.2526 373.247 14.3518 388.372C13.5422 392.478 12.2605 396.721 11.3835 398.296C9.42712 401.649 3.35565 416.021 2.68105 418.827C2.4112 419.854 2.0739 420.675 1.93898 420.538C1.80406 420.402 2.00644 415.2 2.34374 408.972C5.44694 350.525 20.0859 294.131 45.5186 242.527C52.6694 228.086 65.8917 204.338 66.8362 204.338C66.9711 204.338 65.8243 206.596 64.3401 209.266ZM346.393 232.74L346.596 257.379L339.715 257.995C335.937 258.337 332.631 258.405 332.429 258.2C332.227 257.995 333.441 252.519 335.195 245.949C338.366 233.904 345.854 207.76 346.056 207.965C346.124 208.034 346.326 219.189 346.393 232.74ZM62.3163 221.516C60.7647 231.577 61.979 248.755 64.9473 256.489C65.5544 258.063 65.0822 259.158 61.0346 266.07C51.1853 282.701 44.3718 296.252 36.209 315.552L31.8915 325.818L32.2963 321.027C34.59 294.747 42.7527 262.443 53.5464 236.505C56.852 228.634 62.5187 216.589 62.7885 216.931C62.9235 217.068 62.7211 219.121 62.3163 221.516ZM748.729 223.98C760.939 239.242 773.352 256.763 782.392 271.614C784.821 275.652 786.844 279.348 786.844 279.827C786.844 281.127 776.928 292.351 772.07 296.594C762.626 304.944 752.237 312.541 751.293 311.856C750.888 311.583 750.416 303.096 750.213 289.545C749.741 263.401 747.515 239.379 744.007 222.269C743.535 219.942 743.332 218.026 743.602 218.094C743.804 218.094 746.166 220.763 748.729 223.98ZM808.904 231.029C821.384 259.226 829.142 288.655 833.055 322.396C834.202 332.115 835.821 365.718 835.214 366.334C834.944 366.54 832.38 364.281 829.48 361.338C824.42 356.137 824.083 355.589 821.587 348.745C815.11 330.335 805.059 307.887 795.142 289.682C792.241 284.344 789.948 279.827 790.015 279.553C790.083 279.279 791.567 276.679 793.321 273.804C796.964 267.781 800.404 259.432 802.495 251.767C803.777 247.181 803.979 244.58 803.979 233.63C804.047 226.581 804.249 221.037 804.452 221.311C804.654 221.585 806.678 225.965 808.904 231.029ZM817.539 242.733C839.734 288.519 853.361 336.084 858.623 386.045C859.837 396.927 861.186 417.253 860.781 417.664C860.646 417.801 860.174 415.953 859.769 413.421C857.611 400.896 849.246 383.855 839.396 372.015L836.833 368.935L836.765 355.247C836.698 327.666 833.055 299.88 825.904 273.188C822.936 261.964 817.337 245.402 813.626 236.641C812.277 233.562 811.333 231.029 811.535 231.029C811.737 231.029 814.436 236.299 817.539 242.733ZM479.898 258.268L486.239 258.747L487.791 268.329C493.12 301.864 502.902 377.079 502.025 377.832C501.553 378.243 470.656 379.543 450.89 379.954C424.311 380.501 381.81 379.201 358.064 377.079L353.274 376.669L352.465 361.817C350.441 326.023 349.699 307.134 349.227 284.002L348.822 259.295L358.536 258.747C363.866 258.474 372.973 257.995 378.707 257.721C390.715 257.105 470.319 257.584 479.898 258.268ZM506.882 260.116C523.208 261.417 536.43 262.717 553.363 264.702L566.45 266.207L565.978 282.701C565.708 291.735 565.236 305.149 564.831 312.472C564.089 327.734 560.918 371.467 560.514 371.878C559.907 372.494 524.557 376.327 511.537 377.216L504.319 377.695L503.914 374.342C503.712 372.494 502.16 359.764 500.474 346.008C497.573 321.78 492.986 288.861 489.815 268.808L488.263 259.09H490.962C492.513 259.09 499.664 259.569 506.882 260.116ZM347.001 274.283C347.001 289.819 348.215 321.575 350.104 355.452C350.778 366.813 351.116 376.258 350.981 376.395C350.508 376.874 310.1 372.494 309.56 371.878C309.425 371.741 310.977 361.817 312.933 349.772C317.992 319.316 322.445 297.416 330 265.934L331.282 260.801L335.937 260.39C338.5 260.185 342.008 259.979 343.83 259.911L347.001 259.774V274.283ZM68.6576 265.591C74.1219 278.321 88.0863 294.815 102.793 305.902C106.705 308.845 110.146 311.514 110.483 311.788C110.821 312.13 107.448 314.252 102.995 316.51C92.2689 321.917 83.3641 327.118 72.7727 334.236C58.2012 343.886 50.9155 349.84 38.84 361.954L30.4749 370.304L30.7447 352.167L30.9471 334.031L36.0066 321.37C41.8083 306.792 52.8044 284.138 60.6298 270.519C63.5981 265.386 66.1616 261.143 66.364 261.143C66.5663 261.143 67.5783 263.128 68.6576 265.591ZM327.639 267.097C322.58 286.465 313.675 331.02 309.223 359.696C308.48 364.76 307.671 369.551 307.536 370.372L307.199 371.81L294.584 369.893C246.552 362.844 204.591 352.646 171.063 339.917C160.539 335.947 152.039 332.183 152.039 331.43C152.039 330.13 168.769 292.557 169.849 291.461C170.321 290.982 188.4 285.781 200.273 282.701C233.936 274.009 271.31 267.302 308.211 263.264C315.294 262.512 321.973 261.759 323.052 261.622C324.199 261.485 326.02 261.28 327.167 261.211L329.258 261.143L327.639 267.097ZM580.617 268.397C602.946 271.751 621.093 275.173 649.697 281.401L655.229 282.633L660.288 293.241C665.887 305.081 668.181 310.145 672.566 320.548C675.804 328.145 682.28 344.434 682.28 344.981C682.28 345.255 670.205 349.156 660.356 352.099C644.435 356.821 614.55 363.528 593.232 367.224C581.831 369.209 563.28 371.878 562.942 371.604C562.807 371.536 563.347 363.186 564.157 353.057C566.585 321.438 568.204 288.724 568.272 272.23C568.272 269.15 568.407 266.618 568.609 266.618C568.811 266.618 574.208 267.439 580.617 268.397ZM798.987 301.18C801.888 306.792 806.341 316.031 808.837 321.712C813.964 333.483 821.452 352.852 820.98 353.399C820.777 353.536 819.023 352.304 817.067 350.662C804.587 340.054 781.313 325.75 762.626 317.195C758.174 315.142 754.531 313.362 754.463 313.157C754.463 312.952 756.217 311.583 758.376 310.145C767.955 303.438 779.424 293.036 784.955 285.986L788.396 281.606L791.027 286.26C792.511 288.792 796.087 295.499 798.987 301.18ZM673.241 287.424C701.237 294.815 722.015 301.796 746.57 311.993C750.551 313.636 748.999 314.936 732.673 323.833C720.193 330.609 704.272 337.658 690.915 342.244L684.372 344.502L682.213 338.959C678.84 329.993 671.689 313.02 667.641 304.397C665.617 300.016 662.717 293.788 661.233 290.572C659.748 287.355 658.399 284.549 658.197 284.207C657.725 283.386 658.534 283.591 673.241 287.424ZM161.956 303.37C159.19 309.324 155.614 317.263 153.995 321.027C152.444 324.792 150.96 328.145 150.69 328.419C150.15 329.035 149.408 321.233 148.734 307.545L148.329 298.785L156.424 295.773C166.408 292.077 166.476 292.077 166.813 292.351C166.948 292.488 164.789 297.416 161.956 303.37ZM146.845 308.845C147.114 313.704 147.519 320.48 147.722 324.039L148.194 330.404L137.468 324.86C131.598 321.849 124.178 317.811 121.007 315.963L115.273 312.541L118.646 311.104C135.106 303.917 143.876 300.359 145.36 300.222C146.237 300.153 146.507 301.454 146.845 308.845ZM119.86 317.674C123.233 319.727 131.059 323.97 137.198 326.982C143.337 330.061 148.396 332.594 148.531 332.731C148.666 332.799 146.372 339.438 143.404 347.513C130.654 382.075 121.614 416.227 115.678 452.637C111.225 479.67 109.539 498.423 109.067 526.757L108.662 549.821L102.118 546.878C94.7649 543.524 79.4513 535.312 71.6259 530.521L66.4314 527.304L61.5743 514.848C43.967 469.883 33.9828 425.74 30.9471 379.748L30.5423 373.52L37.1535 366.471C49.7686 353.126 65.1497 340.875 83.5664 329.651C92.5387 324.176 111.765 313.841 113.047 313.841C113.384 313.841 116.42 315.552 119.86 317.674ZM767.551 321.986C789.475 333.004 808.634 345.255 819.698 355.452C823.138 358.601 823.341 358.874 825.972 367.908C827.456 372.973 829.817 381.596 831.099 387.003L833.595 396.927L832.448 406.508C829.007 436.485 822.801 464.066 812.412 495.548C809.039 505.677 805.936 514.437 805.531 514.985C804.452 516.285 787.384 527.578 780.166 531.821C773.69 535.517 754.261 545.304 750.078 546.878L747.312 547.973L739.554 543.319C735.304 540.787 729.975 537.775 727.749 536.68L723.634 534.764L722.892 521.966C722.419 514.985 721.542 504.308 721.003 498.286L719.856 487.335L723.364 475.701C738.408 425.74 747.312 376.806 749.741 330.267C750.416 317.879 750.955 314.526 752.305 314.526C752.507 314.526 759.388 317.879 767.551 321.986ZM748.054 324.928C745.558 373.178 738.138 417.322 724.713 464.203C722.824 470.91 720.935 477.549 720.598 478.917C720.193 480.355 719.721 481.518 719.451 481.518C719.249 481.518 718.304 476.659 717.495 470.773C712.773 437.511 701.979 394.052 690.106 360.38C687.677 353.468 685.653 347.377 685.653 346.966C685.653 346.487 688.149 345.255 691.253 344.228C705.892 339.369 731.189 327.734 742.995 320.48C745.761 318.769 748.122 317.332 748.257 317.332C748.392 317.263 748.257 320.754 748.054 324.928ZM158.583 337.042C190.357 351.209 244.932 365.034 298.429 372.562C306.052 373.657 306.861 373.931 306.726 375.095C306.659 375.847 305.782 382.007 304.905 388.783C301.262 415.269 297.889 446.888 296.068 470.568C295.528 477.891 294.921 485.83 294.718 488.157L294.314 492.332L291.818 492.742C257.345 498.012 230.496 503.692 203.781 511.358C196.428 513.479 190.357 515.122 190.222 514.985C190.087 514.848 188.333 509.441 186.242 503.077C169.174 450.447 158.178 400.828 152.107 349.088C150.42 335.331 150.353 333.415 151.567 333.894C151.972 334.099 155.142 335.537 158.583 337.042ZM149.948 347.513C154.333 391.725 167.083 450.241 183.341 500.27L188.333 515.806L186.579 516.559C185.567 516.901 182.194 518.065 179.023 519.16C157.706 526.278 136.388 535.927 120.063 545.783C115.678 548.452 111.832 550.642 111.563 550.642C110.686 550.642 110.483 540.65 111.023 521.213C112.575 464.75 123.436 408.63 143.944 351.278C146.372 344.639 148.464 339.164 148.734 339.164C148.936 339.164 149.476 342.928 149.948 347.513ZM28.5185 357.779V372.905L25.2804 377.079C23.5264 379.406 20.7605 383.17 19.2089 385.497C17.6573 387.893 16.3081 389.809 16.1732 389.809C15.7684 389.809 18.7367 375.984 21.0978 366.882C23.2566 358.532 27.9788 342.586 28.3161 342.586C28.451 342.586 28.5185 349.43 28.5185 357.779ZM686.53 356.068C700.832 396.79 710.344 435.048 716.348 476.727L717.9 487.335L713.987 498.696C710.411 508.962 704.542 525.388 704.205 525.867C704.138 525.935 701.979 525.114 699.415 524.019C687.88 519.023 659.209 510.057 639.105 505.198C613.943 499.039 575.018 492.058 554.712 490.005C552.216 489.731 549.787 489.32 549.383 489.046C548.708 488.636 549.045 484.803 550.934 471.868C555.454 440.728 559.03 411.504 561.256 387.072C561.863 380.091 562.47 374.342 562.538 374.205C562.672 374.068 567.867 373.247 574.073 372.289C599.236 368.593 624.871 363.528 646.526 357.916C657.792 354.973 676.006 349.635 679.582 348.129C683.09 346.692 683.292 346.966 686.53 356.068ZM834.674 376.463C834.674 380.228 834.404 384.676 834.202 386.319L833.73 389.33L832.448 384.265C831.773 381.459 830.154 375.642 828.872 371.33C827.658 367.019 826.444 362.844 826.174 362.091C825.972 361.27 827.591 362.502 830.289 365.171L834.742 369.551L834.674 376.463ZM844.928 383.239C853.698 396.585 858.083 409.314 859.365 425.055C859.904 431.489 858.623 441.139 855.992 450.378C854.305 456.401 845.94 474.674 844.928 474.674C844.658 474.674 844.186 469.062 843.984 462.15C843.376 444.219 840.948 424.508 837.103 405.14C835.551 397.269 835.484 395.969 836.091 389.262C836.428 385.224 836.765 379.748 836.765 377.148L836.833 372.357L838.924 374.752C840.003 376.053 842.769 379.885 844.928 383.239ZM326.088 376.121C332.564 376.806 340.322 377.627 343.29 377.832C352.397 378.517 351.385 377.079 352.33 390.63C353.477 407.603 355.501 430.941 358.199 459.275C359.481 472.758 360.425 484.187 360.223 484.666C360.088 485.077 357.187 485.624 352.937 485.898C342.211 486.583 326.492 488.225 311.044 490.141C303.286 491.1 296.877 491.784 296.742 491.647C296.068 490.963 300.25 443.26 303.151 418.348C304.838 404.181 308.548 376.121 308.953 374.889C309.155 374.205 309.965 374.068 311.786 374.342C313.135 374.616 319.611 375.368 326.088 376.121ZM560.176 376.327C560.176 384.676 553.498 440.933 548.573 474.195L546.347 489.115L544.66 488.773C543.716 488.567 537.375 487.951 530.494 487.335C512.954 485.761 513.628 485.898 513.628 483.708C513.628 476.043 507.422 405.824 504.926 384.471C504.589 381.528 504.656 380.022 505.128 379.885C505.533 379.748 512.077 379.133 519.7 378.517C530.156 377.627 552.688 375.163 559.704 374.136C559.974 374.068 560.176 375.095 560.176 376.327ZM30.5423 398.706C34.5225 437.511 44.6416 477.549 60.4949 517.654C62.1814 521.897 63.1933 525.114 62.7885 524.909C62.3163 524.635 59.1457 522.445 55.6377 519.981C36.8836 506.841 21.5026 490.141 12.9351 473.511L9.49458 466.94L9.89934 449.078C10.3041 430.736 10.7089 426.082 13.2049 407.33C14.824 395.147 15.0938 394.531 23.8637 382.281L28.2487 376.19L28.7209 380.775C28.9907 383.307 29.8003 391.383 30.5423 398.706ZM372.973 380.228C409.199 382.418 447.719 382.623 486.172 380.844C495.009 380.433 502.295 380.159 502.43 380.296C503.374 381.391 512.279 484.461 511.47 485.282C511.335 485.488 504.386 485.145 496.021 484.529C463.033 482.339 411.83 482.202 377.155 484.256C369.465 484.735 362.989 485.008 362.854 484.803C362.584 484.529 357.997 436.964 356.445 418.554C355.231 403.292 353.747 383.376 353.747 381.049V378.722L357.997 379.133C360.29 379.406 367.036 379.885 372.973 380.228ZM10.3716 413.489C8.68505 426.561 7.67314 441.139 7.67314 452.431C7.67314 458.112 7.4033 460.918 6.99853 460.233C5.8517 458.317 3.6255 449.078 2.61359 442.371C1.12945 432.584 1.33183 429.162 3.69296 421.839C5.78424 415.269 11.0462 402.539 11.4509 403.018C11.5859 403.155 11.1136 407.877 10.3716 413.489ZM839.059 429.162C840.813 441.892 841.757 453.321 842.499 468.994L842.972 478.028L838.722 483.708C833.527 490.689 820.575 503.966 814.233 508.757C811.67 510.742 809.444 512.179 809.309 512.042C809.174 511.905 810.186 508.757 811.468 505.061C821.519 477.001 831.841 433.405 833.73 411.025C833.999 408.219 834.337 405.413 834.539 404.866C835.079 403.497 836.968 413.968 839.059 429.162ZM860.377 456.538C857.273 507.32 845.805 555.707 826.107 601.356C821.114 612.922 815.987 623.872 815.515 623.872C815.313 623.872 815.65 622.709 816.257 621.272C833.19 581.371 842.365 539.486 844.119 494.316L844.726 478.78L846.75 475.495C852.619 466.256 858.218 452.089 859.837 442.439L860.714 437.375L860.916 440.797C861.051 442.644 860.849 449.762 860.377 456.538ZM7.67314 472.689C7.67314 489.046 11.316 517.791 16.1732 539.281C17.4549 544.893 18.3319 549.615 18.2645 549.752C17.9272 550.026 15.0938 539.007 12.4629 527.715C7.53822 506.293 3.82788 480.491 2.61359 459.96L2.20882 452.431L4.90725 460.302C7.06599 466.393 7.67314 469.199 7.67314 472.689ZM20.4907 489.389C28.8558 500.75 43.2249 514.027 57.9988 524.156L64.8124 528.81L69.3997 539.213C71.8957 544.962 76.5505 554.748 79.7212 561.045L85.4553 572.474L81.3402 576.991C66.4989 593.485 58.606 614.907 59.8877 635.507C60.1576 639.477 60.6298 643.925 60.9671 645.431C61.3044 646.936 61.4393 648.237 61.3719 648.374C60.8996 648.784 51.9948 632.222 45.7884 619.424C25.4828 577.333 13.7446 533.121 10.3716 485.967C9.2922 471.047 9.15728 471.457 13.1375 478.233C15.0264 481.45 18.3319 486.514 20.4907 489.389ZM842.027 496.164C840.611 539.349 829.817 586.299 812.277 625.583C807.825 635.712 801.483 648.1 802.023 645.773C802.225 644.815 802.563 640.024 802.765 635.165C803.642 615.18 797.773 597.592 784.551 580.482C782.864 578.223 781.448 576.17 781.448 575.965C781.448 575.691 784.483 569.189 788.126 561.524C794.467 548.247 802.36 530.042 805.666 520.734C807.15 516.764 807.622 516.217 812.952 512.247C819.833 507.183 833.055 494.316 838.115 487.746C840.138 485.145 841.96 482.955 842.162 482.955C842.365 482.887 842.297 488.841 842.027 496.164ZM484.62 486.035C495.549 486.583 506.208 487.199 508.299 487.404L512.077 487.815L512.886 503.692C514.438 534.217 515.045 553.243 515.18 575.965L515.315 598.892L503.847 599.713C476.255 601.561 463.505 602.04 433.35 602.382C415.743 602.588 395.842 602.519 389.163 602.177L377.021 601.629L375.199 588.968C371.219 561.798 362.584 488.088 363.259 487.404C363.663 486.925 402.723 484.94 414.124 484.735C433.62 484.461 464.854 485.008 484.62 486.035ZM361.774 495.89C363.798 516.696 370.005 567.067 373.31 590.2C374.052 595.196 374.659 599.85 374.659 600.466C374.659 601.561 373.782 601.561 364.743 601.15C344.572 600.124 303.691 596.77 295.798 595.401L293.504 595.059L293.909 562.071C294.314 534.217 295.798 494.864 296.54 494.179C297.012 493.769 325.818 490.347 339.58 489.046C357.389 487.404 360.02 487.267 360.56 487.678C360.83 487.883 361.37 491.579 361.774 495.89ZM527.121 489.046C531.371 489.457 537.037 489.936 539.736 490.21C542.367 490.415 544.863 490.826 545.335 491.1C546.617 491.921 537.51 542.224 529.01 581.166C525.097 598.892 525.299 598.55 520.105 598.55H517.879L517.406 574.733C517.002 553.859 516.125 531.41 514.573 497.396L514.101 487.609L516.732 488.02C518.148 488.225 522.871 488.704 527.121 489.046ZM563.212 493.153C603.823 498.423 646.256 507.799 678.907 518.681C688.757 522.034 702.384 527.099 703.126 527.783C703.935 528.468 686.328 569.052 684.844 569.874C684.304 570.147 675.939 572.406 666.36 574.87C630.336 583.972 591.276 590.884 550.057 595.47C541.355 596.428 532.652 597.318 530.764 597.592L527.323 597.934L529.887 586.436C534.879 564.535 548.033 495.548 548.033 491.373C548.033 491.168 549.045 491.236 550.26 491.373C551.406 491.579 557.276 492.4 563.212 493.153ZM721.003 524.772L721.475 533.532L715.876 531.068C712.773 529.699 709.332 528.194 708.118 527.715L705.959 526.825L707.983 521.418C709.13 518.475 711.693 511.289 713.717 505.472C715.741 499.655 717.63 494.385 717.832 493.837C718.304 492.605 720.328 512.247 721.003 524.772ZM294.044 499.791C292.897 514.711 292.222 534.217 291.885 563.098L291.48 595.059L289.726 594.717C288.782 594.58 284.195 593.964 279.54 593.348C263.552 591.364 222.873 584.588 218.083 583.082C216.869 582.74 216.869 582.74 210.932 568.778C202.567 549.205 190.762 517.996 191.436 517.312C191.841 516.901 208.571 512.042 219.162 509.236C234.678 505.198 256.536 500.613 278.191 496.917C296.338 493.769 294.584 493.495 294.044 499.791ZM190.492 522.034C196.226 538.186 204.186 558.513 210.865 573.775C212.686 578.086 214.103 581.714 213.901 581.85C213.563 582.261 198.789 578.908 184.083 575.212C158.313 568.642 133.892 560.703 117.364 553.448L114.059 551.942L119.051 548.863C132.071 540.65 152.849 530.726 170.253 524.43C174.908 522.787 180.845 520.665 183.408 519.707C186.039 518.749 188.333 517.928 188.535 517.859C188.805 517.859 189.615 519.707 190.492 522.034ZM799.662 530.247C797.166 536.407 793.928 544.209 792.444 547.562C789.88 553.311 780.233 573.227 779.694 573.843C779.559 573.98 776.86 571.584 773.622 568.505C767.686 562.756 760.467 556.938 753.586 552.353C751.428 550.916 749.943 549.479 750.213 549.205C750.483 548.931 754.126 547.152 758.174 545.304C770.856 539.486 789.408 529.015 798.987 522.308C801.416 520.597 803.575 519.228 803.777 519.228C804.047 519.16 802.158 524.156 799.662 530.247ZM715.066 532.916L721.205 535.654L721.677 539.829C721.88 542.087 722.082 547.152 722.082 550.984V557.965L719.249 559.06C713.38 561.25 688.352 569.189 688.352 568.847C688.352 568.778 690.038 564.877 692.13 560.155C695.57 552.49 702.788 535.106 704.475 530.589C705.284 528.468 704.88 528.399 715.066 532.916ZM72.9076 533.669C78.3045 537.023 98.6102 547.562 104.682 550.163C106.975 551.19 108.864 552.216 108.864 552.49C108.797 552.764 106.638 554.543 104.007 556.459C101.376 558.307 96.5189 562.277 93.2808 565.151C89.9752 568.094 87.1419 570.489 86.9395 570.489C86.7371 570.489 84.5784 566.383 82.1498 561.387C76.9553 550.916 67.7132 530.795 68.1179 530.795C68.2529 530.795 70.4116 532.095 72.9076 533.669ZM729.503 539.965C732.269 541.403 736.923 544.003 739.892 545.714C745.019 548.726 745.154 548.863 743.602 549.615C740.971 550.984 724.781 557.007 724.511 556.733C723.904 556.117 723.296 536.817 723.836 537.023C724.173 537.159 726.737 538.528 729.503 539.965ZM751.967 553.516C758.916 558.239 766.674 564.604 772.947 570.626L778.817 576.307L771.463 589.31C756.015 616.686 738.07 642.967 718.911 666.373C710.479 676.639 706.971 680.54 707.511 678.966C710.411 671.027 716.888 640.503 719.316 623.53C721.88 605.462 724.038 577.812 724.106 561.592V559.197L730.717 556.87C734.292 555.57 739.217 553.653 741.646 552.627C744.074 551.6 746.435 550.71 746.908 550.71C747.38 550.642 749.674 551.942 751.967 553.516ZM120.4 556.87C142.055 565.836 172.817 575.075 204.321 582.124C215.722 584.656 216.127 584.793 216.127 585.615C216.127 586.641 231.238 617.781 237.04 628.731C249.048 651.317 265.845 678.213 280.079 697.924C283.79 703.057 286.691 707.437 286.488 707.642C286.218 707.848 285.679 708.053 285.139 708.053C283.115 708.053 264.429 715.376 255.591 719.688C245 724.752 236.23 730.364 230.698 735.497C228.27 737.687 226.651 738.782 226.111 738.44C224.02 737.208 210.932 726.189 201.623 717.908C174.706 694.023 148.261 664.183 124.717 631.401C117.229 620.998 117.769 622.64 114.936 602.314C112.035 581.782 109.944 553.38 111.36 553.38C111.698 553.38 115.745 554.954 120.4 556.87ZM109.134 564.125C109.741 575.212 111.36 590.884 112.979 601.972C115.475 619.355 115.88 618.671 109.067 608.131C103.4 599.439 94.8998 585.272 90.0427 576.512L87.9514 572.68L92.6062 568.505C97.3284 564.193 107.515 556.186 108.257 556.117C108.527 556.117 108.864 559.744 109.134 564.125ZM722.082 564.467C722.082 570.9 720.868 592.39 720.058 600.945C717.63 626.268 711.828 657.202 705.419 678.555C703.868 683.894 703.328 684.715 697.796 690.875C690.241 699.361 673.78 715.581 664.741 723.52C656.24 730.98 641.669 742.957 641.129 742.957C640.859 742.957 639.645 741.315 638.431 739.398C633.034 730.843 621.566 721.535 607.534 714.486L599.304 710.311L603.554 705.247C633.034 670.001 656.24 633.864 679.717 586.573L687.205 571.448L698.066 568.163C704.07 566.383 711.693 563.851 714.999 562.619C718.372 561.387 721.273 560.36 721.61 560.292C721.88 560.292 722.082 562.14 722.082 564.467ZM677.828 585.683C657.522 626.815 637.621 658.913 612.526 690.943C604.903 700.593 597.954 709.011 597.28 709.285C597.01 709.422 591.815 707.779 585.744 705.726C568.002 699.635 549.248 695.323 527.256 692.175L516.192 690.601L516.664 683.072C516.934 678.966 517.339 666.168 517.676 654.67L518.283 633.796L522.601 617.028L526.918 600.261L529.887 599.782C531.506 599.508 540.275 598.481 549.383 597.523C580.347 594.17 614.55 588.694 643.086 582.466C656.983 579.387 680.931 573.432 681.538 572.816C681.673 572.68 682.415 572.543 683.09 572.543C684.102 572.543 683.157 574.87 677.828 585.683ZM88.7609 578.223C91.5268 583.767 101.106 599.713 108.527 611.279C116.015 622.846 116.15 623.119 117.634 630.1C124.583 663.02 136.253 695.871 149.948 721.056C152.511 725.779 154.535 729.68 154.4 729.817C154.333 729.954 148.936 727.421 142.527 724.273C124.38 715.444 110.753 707.095 98.2729 697.308C91.122 691.696 78.3045 675.407 67.6457 658.297C63.1933 651.248 61.979 645.225 61.979 631.058C62.0465 621.819 62.2489 619.15 63.5981 613.949C65.6894 605.667 69.3322 597.386 73.8521 590.268C78.372 583.288 85.7926 574.391 86.6696 574.938C87.0069 575.212 87.9514 576.649 88.7609 578.223ZM785.158 584.656C795.749 599.097 801.011 615.112 801.011 632.359C800.944 643.172 799.729 649.469 796.626 654.396C787.586 668.837 770.114 688.274 756.487 699.224C737.733 714.281 717.225 726.737 694.423 737.003C679.987 743.505 680.796 743.573 684.911 735.702C691.387 723.246 698.808 705.521 703.193 692.038C705.217 685.81 705.757 684.852 710.546 679.377C733.483 653.37 760.602 614.291 776.388 584.656C778.142 581.371 779.828 578.702 780.166 578.702C780.503 578.702 782.729 581.371 785.158 584.656ZM232.115 587.873C246.686 590.611 267.195 593.827 279.877 595.47C284.734 596.086 289.322 596.702 290.064 596.839C291.48 597.181 291.548 597.592 291.953 610.663C292.964 640.161 294.988 670.001 297.687 693.544L298.834 703.947L294.381 705.315C291.885 706.068 289.659 706.684 289.457 706.684C288.849 706.684 278.663 692.654 271.175 681.498C261.865 667.674 254.579 655.902 246.349 641.324C235.69 622.503 217.476 585.546 218.825 585.546C219.162 585.546 225.166 586.573 232.115 587.873ZM305.175 598.55C323.389 600.466 347.135 602.314 365.89 603.204L374.997 603.683L375.536 606.42C375.806 607.926 377.223 616.823 378.707 626.268C380.191 635.644 383.294 653.507 385.521 665.826C387.814 678.213 389.501 688.479 389.231 688.685C389.029 688.89 383.294 689.643 376.548 690.327C353.747 692.654 330.608 696.418 311.584 700.867C306.052 702.167 301.33 703.057 301.06 702.715C300.52 702.099 298.092 679.24 296.742 662.198C295.595 647.552 294.584 628.321 293.976 609.911L293.572 597.044L296.203 597.455C297.619 597.66 301.667 598.139 305.175 598.55ZM524.422 601.082C524.422 602.588 518.688 625.104 518.216 625.583C518.013 625.789 517.811 620.245 517.744 613.333L517.609 600.671L520.509 600.398C522.129 600.261 523.613 600.124 523.95 600.055C524.22 599.987 524.422 600.466 524.422 601.082ZM512.077 648.921C507.287 665.757 500.406 688.137 499.867 688.685C499.664 688.89 495.347 688.685 490.22 688.205C469.307 686.358 412.707 686.631 395.235 688.685L391.794 689.027L388.286 670.001C385.453 654.807 380.259 623.941 377.695 606.762L377.29 604.367H420.668C462.561 604.299 475.446 603.888 508.906 601.424L515.315 600.945L515.922 617.097L516.529 633.18L512.077 648.921ZM125.122 635.644C151.432 672.191 182.127 705.042 216.329 733.307C221.051 737.208 224.897 740.562 224.897 740.699C224.897 740.904 223.413 743.368 221.524 746.174C219.702 748.98 218.151 751.512 218.151 751.786C218.151 753.018 184.69 742.204 167.96 735.566L158.043 731.596L155.277 726.805C142.19 703.947 129.777 671.985 122.761 642.693C121.007 635.507 119.456 629.279 119.321 628.8C118.713 627.021 119.725 628.252 125.122 635.644ZM515.382 662.678C515.18 672.054 514.775 682.046 514.505 684.989L514.101 690.327L508.636 689.848C505.601 689.643 502.97 689.232 502.7 688.958C502.43 688.753 503.982 683.004 506.14 676.229C508.232 669.453 511.2 659.803 512.617 654.807C514.101 649.879 515.382 645.773 515.585 645.773C515.72 645.773 515.652 653.37 515.382 662.678ZM792.511 664.388C792.241 664.868 789.61 668.837 786.642 673.149C772.07 694.365 756.285 713.733 740.297 730.022C715.943 754.797 683.292 777.245 649.225 792.576L642.411 795.587L648.145 789.291C658.804 777.656 665.483 768.417 678.368 748.09C679.852 745.626 680.999 745.01 688.082 741.999C699.415 737.277 721.475 725.779 731.931 719.14C754.801 704.699 775.578 686.152 788.733 668.495C792.039 664.046 793.793 662.13 792.511 664.388ZM477.874 689.574C484.013 689.916 491.299 690.464 494.132 690.669L499.327 691.08L496.426 699.498C486.239 728.722 473.489 758.424 463.708 775.808L460.267 781.968L449.676 782.104C443.874 782.241 433.755 782.241 427.211 782.104L415.338 781.899L411.56 769.443C405.287 748.706 401.104 732.075 395.505 706C394.021 699.019 392.671 692.859 392.469 692.175C392.199 691.217 392.874 691.011 396.382 690.601C412.303 688.958 457.973 688.411 477.874 689.574ZM698.403 699.566C693.884 711.954 687.947 725.573 682.618 735.771L678.3 744.052L674.05 745.626C659.276 751.17 645.042 755.755 644.84 755.071C644.03 752.196 642.478 747.2 642.141 746.311C641.871 745.558 643.625 743.778 647.673 740.562C663.526 727.9 686.8 706.41 696.11 695.802C699.078 692.449 701.574 689.78 701.709 689.848C701.776 689.985 700.36 694.365 698.403 699.566ZM390.445 692.106C390.648 692.791 391.862 698.54 393.211 704.973C398.338 729.201 403.87 751.238 409.806 770.607C411.628 776.561 413.045 781.557 412.91 781.694C412.572 782.104 389.568 780.667 372.028 779.162L355.568 777.793L349.429 772.523C338.231 763.01 311.651 735.634 304.703 726.532C304.028 725.573 300.857 706.068 301.33 705.589C301.802 705.042 322.715 700.456 333.171 698.54C350.846 695.323 365.755 693.338 389.298 691.011C389.703 691.011 390.243 691.491 390.445 692.106ZM514.168 692.654C514.438 692.859 512.549 721.193 511.605 731.665C510.525 743.368 508.299 763.01 506.95 772.044L505.803 780.257L492.648 781.078C478.347 781.899 463.033 782.173 463.033 781.557C463.033 781.352 464.922 777.724 467.216 773.55C473.759 761.504 481.18 745.147 488.128 727.558C491.839 718.182 500.136 695.528 500.136 694.776C500.136 694.57 500.406 693.749 500.744 692.859C501.351 691.217 501.418 691.217 507.624 691.833C511.132 692.175 514.033 692.517 514.168 692.654ZM529.954 694.707C543.986 696.76 555.724 699.156 567.597 702.304C578.728 705.247 595.256 710.79 595.256 711.612C595.256 713.254 567.732 741.52 555.454 752.607C548.303 759.04 537.24 768.143 528.942 774.371L522.601 779.093L515.248 779.572L507.827 780.051L509.041 771.907C510.863 759.725 513.426 734.881 514.64 717.977C516.462 691.696 516.327 692.996 517.541 692.996C518.216 692.996 523.748 693.749 529.954 694.707ZM113.519 718.25C133.42 738.098 157.908 757.329 180.71 771.017C185.027 773.618 189.075 776.903 194.877 782.652C204.321 791.891 213.833 799.762 223.615 806.332C232.317 812.081 233.329 813.039 227.258 809.686C209.043 799.693 187.388 785.663 171.873 773.892C155.682 761.709 134.634 742.957 122.154 729.748C114.396 721.535 100.229 705.521 97.3959 701.756C96.1816 700.114 97.5308 701.414 100.432 704.631C103.332 707.848 109.202 713.939 113.519 718.25ZM111.158 709.011C119.86 714.828 135.579 723.383 148.396 729.269L156.559 733.033L159.46 737.824C163.575 744.531 172.21 756.85 177.877 763.968C180.642 767.39 181.992 769.512 181.047 768.896C180.103 768.28 177.269 766.5 174.638 764.858C152.511 751.101 124.11 727.627 107.448 709.353C103.94 705.452 101.578 702.646 102.118 702.988C102.658 703.331 106.705 706 111.158 709.011ZM300.183 713.528C300.722 717.361 301.127 720.783 300.992 721.125C300.79 721.672 291.885 710.79 291.278 709.216C291.076 708.6 292.29 707.984 294.853 707.3C297.012 706.684 298.834 706.273 298.969 706.342C299.036 706.41 299.643 709.627 300.183 713.528ZM295.393 718.182L301.937 726.6L304.23 738.714C305.512 745.352 307.671 755.687 309.155 761.641L311.719 772.455L309.965 772.112C309.02 771.907 302.544 770.812 295.663 769.648C288.782 768.553 277.853 766.5 271.445 765.2L259.706 762.805L252.488 757.945C248.508 755.345 241.425 750.28 236.77 746.79L228.202 740.425L231.778 737.14C238.726 730.775 250.734 723.52 262.337 718.593C271.242 714.828 286.421 709.422 287.703 709.627C288.31 709.695 291.75 713.528 295.393 718.182ZM605.375 715.65C614.887 720.235 624.264 726.737 629.931 732.554C634.046 736.798 639.038 743.231 639.105 744.463C639.105 744.942 623.252 756.713 615.697 761.709C611.379 764.652 609.962 765.2 601.53 766.979C589.05 769.648 575.827 772.112 562.268 774.165C550.53 775.945 527.728 778.683 527.39 778.409C527.323 778.272 530.291 775.876 534.069 773.002C537.847 770.128 544.93 764.447 549.72 760.341C559.164 752.333 585.204 726.6 592.895 717.703C595.526 714.692 597.752 712.228 597.954 712.159C598.157 712.159 601.462 713.733 605.375 715.65ZM320.151 747.132C324.131 751.444 331.619 758.903 336.679 763.626C341.806 768.348 347.203 773.344 348.687 774.713L351.385 777.245L347.001 776.835C340.052 776.15 314.282 772.934 314.012 772.66C313.203 771.975 305.175 734.881 305.175 731.87C305.175 731.049 306.524 732.144 309.02 734.95C311.111 737.277 316.171 742.752 320.151 747.132ZM169.916 738.508C179.023 742.136 197.777 748.501 209.246 751.854L216.936 754.113L216.532 756.234C214.305 767.253 216.262 776.287 223.21 786.827C225.166 789.77 226.718 792.234 226.583 792.234C225.774 792.234 210.123 784.774 200.476 779.778C187.388 773.002 187.726 773.276 176.797 759.451C172.277 753.771 160.134 735.976 160.134 735.087C160.134 734.813 160.539 734.744 161.011 734.95C161.416 735.155 165.464 736.729 169.916 738.508ZM233.464 746.858C236.365 749.048 242.234 753.223 246.484 756.097C250.667 759.04 253.972 761.436 253.77 761.436C252.488 761.436 220.916 753.36 220.309 752.812C219.365 752.128 226.246 742.204 227.393 742.615C227.797 742.752 230.563 744.668 233.464 746.858ZM641.332 750.28C643.355 756.85 643.625 756.371 637.486 758.082C623.792 761.846 618.193 763.215 618.193 762.873C618.193 762.668 619.474 761.641 621.093 760.614C622.645 759.588 627.435 756.166 631.685 752.949C635.935 749.733 639.645 747.132 639.915 747.063C640.117 747.063 640.792 748.501 641.332 750.28ZM676.209 747.474C676.209 747.748 673.038 752.744 669.193 758.63C660.625 771.633 652.665 781.831 643.625 791.138C638.161 796.751 636.07 798.462 633.506 799.283C631.28 800.036 630.47 800.104 630.74 799.557C631.01 799.077 632.427 796.956 633.911 794.697C640.522 784.705 645.177 771.496 645.177 762.531V757.672L650.439 756.097C653.272 755.208 660.018 752.812 665.415 750.828C675.872 746.927 676.209 746.858 676.209 747.474ZM246.484 761.778L258.964 764.789L269.758 771.359C275.695 774.987 288.58 781.968 298.429 786.827C308.278 791.754 317.048 796.135 317.858 796.545C319.072 797.161 320.488 799.899 323.322 806.948C325.481 812.218 327.572 817.214 328.044 818.035C329.056 819.952 329.461 819.952 318.667 818.241C294.179 814.408 266.048 807.29 246.147 799.899C230.091 793.876 231.508 794.697 227.258 788.948C222.401 782.378 219.77 777.04 218.42 771.223C217.274 766.363 217.409 759.862 218.69 756.577L219.432 754.729L226.718 756.782C230.698 757.877 239.603 760.135 246.484 761.778ZM642.951 764.789C642.344 774.713 639.038 783.268 631.213 795.108L626.828 801.747L616.641 805.169C584.192 815.982 550.462 821.663 512.819 822.826L498.18 823.237L499.192 819.952C499.732 818.104 500.541 816.393 500.946 816.119C501.418 815.845 504.521 814.887 507.894 814.066C516.934 811.807 536.363 805.237 548.101 800.378C566.99 792.644 583.518 784.226 603.081 772.249C611.716 767.048 612.256 766.774 623.657 763.831C630.133 762.189 636.744 760.341 638.431 759.793C643.558 758.151 643.423 757.945 642.951 764.789ZM703.193 764.379C702.653 764.858 697.189 768.964 691.185 773.55C667.304 791.686 639.982 808.385 616.169 819.404L611.109 821.731L613.133 819.609C614.28 818.446 617.923 815.503 621.228 813.108C624.601 810.644 629.661 806.674 632.562 804.21C636.542 800.788 639.51 799.009 645.042 796.614C661.975 789.291 684.979 776.629 698.134 767.322C703.058 763.831 705.689 762.325 703.193 764.379ZM273.199 767.595C279.675 768.964 310.639 774.439 311.853 774.439C312.191 774.439 312.663 775.397 312.933 776.492C313.203 777.656 314.552 782.104 315.901 786.416C317.318 790.728 318.397 794.287 318.262 794.287C318.195 794.287 313.203 791.96 307.199 789.154C292.222 782.173 263.484 766.227 265.778 766.227C266.25 766.227 269.556 766.842 273.199 767.595ZM605.308 768.553C603.823 770.059 585.811 780.188 573.534 786.416C552.081 797.23 533.125 804.758 511.132 811.054C500.271 814.203 500.744 814.271 501.823 809.959C502.363 808.043 503.442 803.252 504.251 799.351C505.061 795.45 505.938 792.234 506.208 792.234C506.41 792.234 510.458 789.633 515.18 786.485C523.545 780.873 523.68 780.804 528.942 780.325C546.01 778.751 580.145 773.55 596.268 770.059C603.823 768.417 605.847 768.074 605.308 768.553ZM324.401 776.219C328.854 776.766 337.489 777.861 343.627 778.546L354.759 779.778L363.528 786.485C381.271 800.036 400.564 811.533 418.846 819.404L424.243 821.731L418.981 821.389C394.56 819.609 355.568 809.686 328.112 798.256L321.028 795.313L317.858 785.732C316.104 780.462 314.687 775.945 314.619 775.603C314.619 774.918 315.227 774.987 324.401 776.219ZM222.603 792.576C229.012 795.382 230.631 796.408 235.016 800.72C243.111 808.659 257.278 819.336 267.599 825.427C269.353 826.453 270.702 827.411 270.568 827.548C270.095 828.096 252.151 820.499 244.663 816.598C229.754 808.864 215.25 798.804 203.174 787.853C192.178 777.861 192.246 777.724 204.389 783.884C210.393 786.964 218.555 790.865 222.603 792.576ZM392.537 782.652C400.699 783.063 408.862 783.61 410.683 783.884L413.989 784.363L417.16 792.986C420.803 802.773 425.255 813.108 427.751 817.419C428.695 819.062 429.303 820.567 429.033 820.773C428.021 821.799 407.175 812.218 395.167 805.237C383.294 798.325 359.278 781.899 359.211 780.599C359.143 780.325 363.326 780.599 368.453 781.009C373.513 781.489 384.374 782.241 392.537 782.652ZM513.021 785.458C509.581 787.717 506.613 789.428 506.478 789.291C506.275 789.154 506.545 787.443 506.95 785.526L507.624 782.036L511.132 781.762C520.172 781.146 520.037 780.873 513.021 785.458ZM504.589 786.895C503.712 791.891 503.577 792.028 489.478 799.693C470.386 810.028 447.652 819.336 439.287 820.225C436.791 820.499 434.699 820.567 434.699 820.431C434.699 820.294 436.184 818.583 438.005 816.666C443.132 811.191 449.811 802.363 456.085 792.713L461.751 784.021L470.319 783.952C475.041 783.884 482.394 783.61 486.644 783.336C490.894 783.131 496.831 782.857 499.867 782.789L505.331 782.652L504.589 786.895ZM457.569 786.553C451.227 797.298 443.334 808.043 436.656 815.161L431.461 820.567L428.021 813.587C424.513 806.537 422.287 801.062 418.172 789.975L415.945 784.021H437.533H459.12L457.569 786.553ZM501.62 801.952C498.855 814.887 499.259 814.271 493.39 815.64C487.184 817.077 474.029 819.404 466.811 820.294C461.346 820.978 449.743 820.499 450.688 819.609C450.957 819.336 454.128 817.967 457.636 816.666C469.846 812.081 486.847 803.8 497.438 797.435C500.204 795.792 502.7 794.355 502.902 794.355C503.105 794.287 502.565 797.777 501.62 801.952ZM255.254 805.032C276.099 811.944 303.151 818.309 323.929 821.047L330.203 821.868L331.957 825.016C332.969 826.727 335.33 830.56 337.354 833.434L340.929 838.772H334.048C320.421 838.772 301.532 836.377 287.837 832.887C282.238 831.518 279.54 830.354 273.333 826.659C258.829 817.967 242.571 806.058 236.702 799.762L234.678 797.572L238.389 799.146C240.413 799.967 248.036 802.636 255.254 805.032ZM330.27 801.404C353.072 810.302 375.739 816.735 398.203 820.567C403.465 821.457 407.985 822.415 408.187 822.621C408.457 822.826 399.215 823.031 387.747 823.031C367.171 823.031 354.961 822.484 339.377 820.841L331.35 820.02L329.798 816.94C327.302 811.807 321.838 798.393 322.31 798.393C322.445 798.393 326.02 799.762 330.27 801.404ZM629.324 804.279C628.244 805.237 626.423 806.674 625.276 807.496L623.252 808.933L625.546 806.264C626.828 804.758 628.312 803.321 628.919 803.047C631.145 802.089 631.28 802.568 629.324 804.279ZM619.542 810.028C615.089 815.092 609.693 818.788 597.954 824.742C583.18 832.271 566.788 837.472 549.045 840.278C541.018 841.578 537.037 841.784 522.736 841.715C505.938 841.647 492.243 840.415 492.513 839.115C492.648 838.704 493.795 835.487 495.144 831.86L497.573 825.29L512.752 824.811C543.379 823.853 568.744 820.362 595.593 813.381C602.677 811.602 611.581 809.001 615.494 807.701C619.407 806.401 622.847 805.305 623.185 805.305C623.455 805.237 621.835 807.359 619.542 810.028ZM497.775 818.035C497.505 818.72 497.101 819.952 496.966 820.841C496.763 821.663 496.359 822.552 495.954 822.758C495.616 822.963 490.152 822.894 483.811 822.621C477.537 822.347 472.747 821.936 473.22 821.663C473.759 821.389 476.593 820.773 479.561 820.362C482.529 819.883 487.386 818.993 490.355 818.241C497.505 816.598 498.382 816.53 497.775 818.035ZM448.731 822.142C447.719 822.278 445.898 822.278 444.684 822.142C443.469 822.005 444.279 821.868 446.505 821.868C448.731 821.868 449.743 822.005 448.731 822.142ZM343.29 823.442C355.163 824.742 399.822 825.427 412.842 824.537C427.818 823.51 428.763 824.058 417.497 827.275C394.358 833.708 373.31 837.404 352.87 838.499C342.953 839.046 343.425 839.32 338.703 832.065C334.25 825.153 332.631 822.347 333.306 822.347C333.576 822.415 338.096 822.894 343.29 823.442ZM482.192 824.4C489.275 824.811 495.077 825.221 495.212 825.358C495.549 825.632 493.053 832.613 491.299 836.24C490.22 838.43 489.41 839.388 488.668 839.183C488.128 838.978 484.418 838.225 480.505 837.404C476.593 836.651 470.521 835.214 467.013 834.324C458.985 832.134 439.961 825.837 439.152 825.016C438.747 824.674 440.703 824.4 443.874 824.332C446.775 824.263 451.16 823.989 453.588 823.716C458.041 823.168 459.458 823.168 482.192 824.4ZM435.779 831.723C438.005 835.419 441.446 840.757 443.537 843.563C447.247 848.696 456.422 857.867 457.906 858.004C458.311 858.004 458.041 858.278 457.299 858.62C454.263 859.989 397.056 859.099 388.219 857.525C385.925 857.183 385.925 857.114 390.243 855.609C400.699 851.913 411.493 844.384 423.164 832.818C427.076 828.986 430.517 825.632 430.922 825.495C431.326 825.358 431.731 825.153 431.731 825.153C431.799 825.085 433.62 828.096 435.779 831.723ZM448.529 830.628C460.402 834.666 471.735 837.814 482.259 839.867C485.632 840.483 488.398 841.099 488.533 841.236C489.005 841.578 485.228 848.354 482.731 851.571C478.684 856.704 476.66 857.73 469.104 858.278L462.696 858.757L458.648 856.088C451.969 851.639 444.144 842.058 436.049 828.233C434.565 825.7 434.565 825.564 435.779 826.111C436.453 826.385 442.255 828.438 448.529 830.628ZM419.521 833.023C407.715 844.384 395.437 852.392 385.79 854.924C379.652 856.498 370.274 856.361 364.878 854.513C359.818 852.803 351.993 847.738 348.147 843.7L345.584 841.031L353.207 840.552C372.231 839.32 390.31 836.377 410.346 831.176C417.564 829.328 423.568 827.685 423.771 827.48C423.973 827.275 424.445 827.138 424.85 827.138C425.255 827.206 422.894 829.807 419.521 833.023ZM279.472 832.75C280.349 833.092 280.889 833.503 280.687 833.708C280.484 833.913 279 833.434 277.381 832.681C274.683 831.312 275.897 831.381 279.472 832.75ZM310.572 839.115C315.227 839.731 324.334 840.415 330.81 840.62L342.616 840.962L346.663 844.932C348.889 847.122 352.667 850.202 355.096 851.776C360.088 854.993 361.235 854.993 345.314 852.05C331.754 849.586 321.568 847.19 311.921 844.248C302.679 841.442 289.052 836.377 288.107 835.419C287.77 835.077 290.806 835.556 294.853 836.377C298.834 837.267 305.917 838.499 310.572 839.115ZM569.553 838.362C569.014 838.909 548.776 844.932 539.264 847.327C519.363 852.392 504.117 855.129 485.362 856.909L480.303 857.388L483.001 854.377C485.228 851.776 490.22 843.905 490.827 842.058C490.962 841.784 494.672 841.989 499.124 842.605C504.724 843.426 512.009 843.768 522.736 843.768C539.398 843.768 548.776 842.81 561.188 839.867C568.002 838.225 570.093 837.883 569.553 838.362Z" fill="#EFEFEF"/>
</mask>
<g mask="url(#mask0_301_18)">
<ellipse cx="403" cy="444" rx="491" ry="455" fill="url(#paint0_linear_301_18)"/>
<ellipse cx="422.017" cy="826.905" rx="274.079" ry="274.553" transform="rotate(167.935 422.017 826.905)" fill="url(#paint1_linear_301_18)"/>
</g>
<circle cx="216" cy="585" r="6" fill="#BEE0F8"/>
<circle cx="150" cy="224" r="6" fill="#BDE0F8"/>
<circle cx="504" cy="379" r="4" fill="#F0EAF7"/>
<circle cx="123" cy="422" r="4" fill="#C3E4F7"/>
<circle cx="420" cy="179" r="8" fill="#ECE1FA"/>
<circle cx="420" cy="179" r="15" stroke="#ECE1FA" stroke-width="2"/>
<circle cx="362" cy="487" r="8" fill="#DEE0FA"/>
<circle cx="362" cy="487" r="15" stroke="#DEE0FA" stroke-width="2"/>
<defs>
<linearGradient id="paint0_linear_301_18" x1="-3.12362" y1="726.861" x2="865.965" y2="587.696" gradientUnits="userSpaceOnUse">
<stop stop-color="#F2F2F2"/>
<stop offset="0.239583" stop-color="#B8E0F7"/>
<stop offset="0.536768" stop-color="#EBDFFA"/>
<stop offset="0.693773" stop-color="#F2F2F2"/>
<stop offset="0.994792" stop-color="#F7F7F7"/>
</linearGradient>
<linearGradient id="paint1_linear_301_18" x1="135.419" y1="825.011" x2="168.432" y2="723.873" gradientUnits="userSpaceOnUse">
<stop stop-color="white" stop-opacity="0"/>
<stop offset="0.994792" stop-color="#F7F7F7"/>
</linearGradient>
</defs>
</svg>
