<svg width="134" height="35" viewBox="0 0 134 35" fill="none" xmlns="http://www.w3.org/2000/svg">
<g clip-path="url(#clip0_168_128)">
<path d="M16.0125 0.00215149H5.63368C4.92334 0.00215149 4.31938 0.510168 4.20856 1.20051L0.0108836 27.3966C-0.0726049 27.9132 0.334201 28.3794 0.866795 28.3794H5.8218C6.53202 28.3794 7.13597 27.8716 7.24679 27.18L8.3789 20.1146C8.48824 19.4228 9.09368 18.9149 9.80241 18.9149H13.088C19.9248 18.9149 23.8705 15.6585 24.9011 9.20541C25.3654 6.38215 24.9208 4.16397 23.5776 2.61048C22.1026 0.904423 19.4862 0.00215149 16.0125 0.00215149ZM17.2099 9.56993C16.6423 13.2356 13.7968 13.2356 11.0453 13.2356H9.47922L10.5779 6.38973C10.6432 5.9759 11.0074 5.67119 11.4324 5.67119H12.1501C14.0243 5.67119 15.7924 5.67119 16.706 6.72268C17.2508 7.35016 17.4178 8.28222 17.2099 9.56993Z" fill="#283B82"/>
<path d="M47.0365 9.45204H42.0666C41.6433 9.45204 41.2775 9.75678 41.212 10.1706L40.9922 11.5389L40.6446 11.0429C39.5686 9.50573 37.1692 8.99199 34.7744 8.99199C29.2823 8.99199 24.5914 13.0864 23.6778 18.8299C23.2029 21.6949 23.8782 24.4345 25.5293 26.3449C27.0438 28.1016 29.2109 28.8335 31.7895 28.8335C36.2148 28.8335 38.6688 26.0329 38.6688 26.0329L38.4471 27.3922C38.3635 27.912 38.7704 28.378 39.3001 28.378H43.7768C44.4886 28.378 45.0895 27.8701 45.2019 27.1786L47.888 10.4349C47.9732 9.91953 47.5679 9.45204 47.0365 9.45204ZM40.1088 18.9733C39.6294 21.768 37.3756 23.6444 34.5015 23.6444C33.0583 23.6444 31.9047 23.1887 31.1641 22.3253C30.4296 21.4679 30.1504 20.2475 30.3841 18.8881C30.8318 16.1172 33.1235 14.1799 35.9536 14.1799C37.3652 14.1799 38.5123 14.6414 39.2682 15.5121C40.0256 16.3919 40.3257 17.6199 40.1088 18.9733Z" fill="#283B82"/>
<path d="M73.5065 9.45196H68.5122C68.0356 9.45196 67.5879 9.68499 67.3178 10.0749L60.4294 20.0622L57.5097 10.4648C57.326 9.8642 56.763 9.45196 56.1256 9.45196H51.2177C50.6212 9.45196 50.207 10.0255 50.3967 10.5782L55.898 26.4689L50.726 33.6555C50.3191 34.2214 50.7289 35 51.4318 35H56.4201C56.8935 35 57.3368 34.7728 57.6053 34.3904L74.2167 10.789C74.6144 10.2242 74.2063 9.45196 73.5065 9.45196Z" fill="#283B82"/>
<path d="M90.0423 0.00215149H79.662C78.9533 0.00215149 78.3492 0.510168 78.2383 1.20051L74.0407 27.3966C73.9574 27.9132 74.364 28.3794 74.8937 28.3794H80.2205C80.7151 28.3794 81.1388 28.024 81.216 27.54L82.4072 20.1146C82.5164 19.4228 83.1222 18.9149 83.8308 18.9149H87.115C93.9531 18.9149 97.8974 15.6585 98.9294 9.20541C99.3955 6.38215 98.9477 4.16397 97.6045 2.61048C96.1309 0.904423 93.5161 0.00215149 90.0423 0.00215149ZM91.2398 9.56993C90.6737 13.2356 87.8284 13.2356 85.0752 13.2356H83.5107L84.611 6.38973C84.6762 5.9759 85.0372 5.67119 85.4637 5.67119H86.1815C88.0544 5.67119 89.8238 5.67119 90.7373 6.72268C91.2822 7.35016 91.4475 8.28222 91.2398 9.56993Z" fill="#469BDB"/>
<path d="M121.065 9.45204H116.098C115.672 9.45204 115.309 9.75678 115.245 10.1706L115.025 11.5389L114.676 11.0429C113.6 9.50573 111.202 8.99199 108.808 8.99199C103.315 8.99199 98.626 13.0864 97.7122 18.8299C97.2388 21.6949 97.9111 24.4345 99.5623 26.3449C101.08 28.1016 103.244 28.8335 105.822 28.8335C110.248 28.8335 112.702 26.0329 112.702 26.0329L112.48 27.3922C112.397 27.912 112.803 28.378 113.336 28.378H117.811C118.52 28.378 119.124 27.8701 119.235 27.1786L121.923 10.4349C122.004 9.91953 121.598 9.45204 121.065 9.45204ZM114.137 18.9733C113.661 21.768 111.404 23.6444 108.53 23.6444C107.089 23.6444 105.933 23.1887 105.192 22.3253C104.458 21.4679 104.182 20.2475 104.413 18.8881C104.863 16.1172 107.152 14.1799 109.982 14.1799C111.393 14.1799 112.541 14.6414 113.296 15.5121C114.057 16.3919 114.357 17.6199 114.137 18.9733Z" fill="#469BDB"/>
<path d="M126.925 0.720856L122.665 27.3966C122.581 27.9132 122.988 28.3794 123.518 28.3794H127.8C128.512 28.3794 129.116 27.8716 129.225 27.18L133.426 0.98546C133.509 0.468407 133.103 0.000909805 132.573 0.000909805H127.777C127.354 0.00215721 126.99 0.307276 126.925 0.720856Z" fill="#469BDB"/>
</g>
<defs>
<clipPath id="clip0_168_128">
<rect width="133.438" height="35" fill="white"/>
</clipPath>
</defs>
</svg>
