<svg width="121" height="50" viewBox="0 0 121 50" fill="none" xmlns="http://www.w3.org/2000/svg">
<path fill-rule="evenodd" clip-rule="evenodd" d="M120.161 25.8342C120.161 17.2895 116.022 10.5471 108.111 10.5471C100.167 10.5471 95.3607 17.2895 95.3607 25.7675C95.3607 35.8142 101.035 40.8877 109.179 40.8877C113.151 40.8877 116.155 39.9865 118.425 38.7181V32.0425C116.155 33.1774 113.552 33.8783 110.247 33.8783C107.01 33.8783 104.139 32.7435 103.772 28.8049H120.094C120.094 28.3709 120.161 26.6353 120.161 25.8342ZM103.672 22.6633C103.672 18.8916 105.975 17.3228 108.078 17.3228C110.114 17.3228 112.283 18.8916 112.283 22.6633H103.672Z" fill="#635BFF"/>
<path fill-rule="evenodd" clip-rule="evenodd" d="M82.4769 10.5471C79.2059 10.5471 77.1031 12.0825 75.9348 13.1506L75.5009 11.0812H68.1578V49.9998L76.5023 48.2308L76.5356 38.7848C77.7372 39.6527 79.5063 40.8877 82.4435 40.8877C88.4182 40.8877 93.8588 36.0812 93.8588 25.5004C93.8254 15.8208 88.318 10.5471 82.4769 10.5471ZM80.4742 33.5445C78.5049 33.5445 77.3367 32.8436 76.5356 31.9758L76.5023 19.5925C77.3701 18.6246 78.5717 17.957 80.4742 17.957C83.5116 17.957 85.6144 21.3616 85.6144 25.7341C85.6144 30.2067 83.545 33.5445 80.4742 33.5445Z" fill="#635BFF"/>
<path fill-rule="evenodd" clip-rule="evenodd" d="M56.6757 8.57813L65.0536 6.77572V0L56.6757 1.76903V8.57813Z" fill="#635BFF"/>
<path d="M65.0536 11.1145H56.6757V40.3202H65.0536V11.1145Z" fill="#635BFF"/>
<path fill-rule="evenodd" clip-rule="evenodd" d="M47.697 13.585L47.163 11.115H39.9534V40.3207H48.2979V20.5276C50.2671 17.9575 53.6049 18.4248 54.6397 18.792V11.115C53.5716 10.7145 49.6663 9.98018 47.697 13.585Z" fill="#635BFF"/>
<path fill-rule="evenodd" clip-rule="evenodd" d="M31.0081 3.87231L22.8639 5.60797L22.8305 32.3437C22.8305 37.2836 26.5355 40.9218 31.4754 40.9218C34.2124 40.9218 36.2151 40.4211 37.3165 39.8203V33.0446C36.2484 33.4785 30.9747 35.0139 30.9747 30.074V18.2248H37.3165V11.1153H30.9747L31.0081 3.87231Z" fill="#635BFF"/>
<path fill-rule="evenodd" clip-rule="evenodd" d="M8.44462 19.5925C8.44462 18.2908 9.51271 17.7901 11.2817 17.7901C13.8185 17.7901 17.0227 18.5578 19.5595 19.9263V12.0825C16.7891 10.981 14.0521 10.5471 11.2817 10.5471C4.50602 10.5471 0 14.0852 0 19.9931C0 29.2054 12.6836 27.7368 12.6836 31.7087C12.6836 33.2441 11.3485 33.7448 9.47933 33.7448C6.70896 33.7448 3.1709 32.6099 0.367157 31.0745V39.0185C3.4713 40.3536 6.60883 40.921 9.47933 40.921C16.4219 40.921 21.195 37.4831 21.195 31.5085C21.1616 21.5618 8.44462 23.3309 8.44462 19.5925Z" fill="#635BFF"/>
</svg>
