<svg width="16" height="16" viewBox="0 0 16 16" fill="none" xmlns="http://www.w3.org/2000/svg">
<path d="M1.7875 13.3516L5.84531 9.29375C5.21562 8.47969 4.875 7.48438 4.875 6.4375C4.875 5.18438 5.36406 4.00937 6.24844 3.12344C7.13281 2.2375 8.31094 1.75 9.5625 1.75C10.8141 1.75 11.9922 2.23906 12.8766 3.12344C13.7625 4.00781 14.25 5.18438 14.25 6.4375C14.25 7.68906 13.7609 8.86719 12.8766 9.75156C11.9922 10.6375 10.8156 11.125 9.5625 11.125C8.51562 11.125 7.52187 10.7844 6.70781 10.1562L2.65 14.2125C2.6381 14.2244 2.62397 14.2338 2.60842 14.2403C2.59287 14.2467 2.57621 14.2501 2.55937 14.2501C2.54254 14.2501 2.52588 14.2467 2.51033 14.2403C2.49478 14.2338 2.48065 14.2244 2.46875 14.2125L1.7875 13.5328C1.77559 13.5209 1.76615 13.5068 1.75971 13.4912C1.75326 13.4757 1.74995 13.459 1.74995 13.4422C1.74995 13.4254 1.75326 13.4087 1.75971 13.3931C1.76615 13.3776 1.77559 13.3635 1.7875 13.3516ZM7.0875 8.9125C7.75 9.57344 8.62813 9.9375 9.5625 9.9375C10.4969 9.9375 11.375 9.57344 12.0375 8.9125C12.6984 8.25 13.0625 7.37187 13.0625 6.4375C13.0625 5.50312 12.6984 4.62344 12.0375 3.9625C11.375 3.30156 10.4969 2.9375 9.5625 2.9375C8.62813 2.9375 7.74844 3.3 7.0875 3.9625C6.42656 4.625 6.0625 5.50312 6.0625 6.4375C6.0625 7.37187 6.42656 8.25156 7.0875 8.9125Z" fill="#C7C7C7"/>
</svg>
